<svg xmlns="http://www.w3.org/2000/svg" xmlns:xlink="http://www.w3.org/1999/xlink" xmlns:lucid="lucid" width="1760" height="1360"><g transform="translate(0 0)" lucid:page-tab-id="HWEp-vi-RSFO"><path d="M180 520h300v219H180z" stroke="#333" stroke-width="2" fill="#fff"/><path d="M180 557.6h300M180 658.9h300" stroke="#333" stroke-width="2" fill="none"/><use xlink:href="#a" transform="matrix(1,0,0,1,188,528) translate(114.57499999999999 14.6)"/><use xlink:href="#b" transform="matrix(1,0,0,1,192,565.6) translate(0 25)"/><use xlink:href="#c" transform="matrix(1,0,0,1,192,565.6) translate(10.95 25)"/><use xlink:href="#d" transform="matrix(1,0,0,1,192,565.6) translate(65.9 25)"/><use xlink:href="#b" transform="matrix(1,0,0,1,192,565.6) translate(0 46.6)"/><use xlink:href="#e" transform="matrix(1,0,0,1,192,565.6) translate(10.95 46.6)"/><use xlink:href="#d" transform="matrix(1,0,0,1,192,565.6) translate(95.9 46.6)"/><use xlink:href="#f" transform="matrix(1,0,0,1,192,565.6) translate(0 68.2)"/><use xlink:href="#g" transform="matrix(1,0,0,1,192,666.9) translate(0 24.799999999999997)"/><use xlink:href="#h" transform="matrix(1,0,0,1,192,666.9) translate(15.5 24.799999999999997)"/><use xlink:href="#g" transform="matrix(1,0,0,1,192,666.9) translate(0 46.4)"/><use xlink:href="#i" transform="matrix(1,0,0,1,192,666.9) translate(15.5 46.4)"/><path d="M453.15 79a8 8 0 0 1 8-8h836.75a8 8 0 0 1 8 8v25.16a8 8 0 0 1-8 8H461.15a8 8 0 0 1-8-8z" stroke="#000" stroke-opacity="0" stroke-width="2" fill="#fff" fill-opacity="0"/><use xlink:href="#j" transform="matrix(1,0,0,1,457.1465527853429,75) translate(351.6593827160494 23.657777777777778)"/><use xlink:href="#k" transform="matrix(1,0,0,1,457.1465527853429,75) translate(443.3643209876543 23.657777777777778)"/><path d="M729.63 110.8H1039M729.65 110.8h-1.02M1038.96 110.8h1.03" stroke="#a9afb8" stroke-width="2" fill="none"/><path d="M453.15 120.16a8 8 0 0 1 8-8h837.7a8 8 0 0 1 8 8V123a8 8 0 0 1-8 8h-837.7a8 8 0 0 1-8-8z" stroke="#000" stroke-opacity="0" stroke-width="2" fill="#fff" fill-opacity="0"/><use xlink:href="#l" transform="matrix(1,0,0,1,457.1465527853434,116.15522395689881) translate(328.79611111111114 14.917037037037037)"/><use xlink:href="#m" transform="matrix(1,0,0,1,457.1465527853434,116.15522395689881) translate(373.79271604938276 14.917037037037037)"/><use xlink:href="#n" transform="matrix(1,0,0,1,457.1465527853434,116.15522395689881) translate(420.4889094650206 14.917037037037037)"/><use xlink:href="#o" transform="matrix(1,0,0,1,457.1465527853434,116.15522395689881) translate(432.9383950617284 14.917037037037037)"/><use xlink:href="#p" transform="matrix(1,0,0,1,457.1465527853434,116.15522395689881) translate(464.33829218106996 14.917037037037037)"/><use xlink:href="#q" transform="matrix(1,0,0,1,457.1465527853434,116.15522395689881) translate(489.8321193415638 14.917037037037037)"/><path d="M620 380h300v327H620z" stroke="#333" stroke-width="2" fill="#fff"/><path d="M620 417.6h300M620 605.3h300" stroke="#333" stroke-width="2" fill="none"/><use xlink:href="#r" transform="matrix(1,0,0,1,628,388) translate(112.07499999999999 14.6)"/><use xlink:href="#b" transform="matrix(1,0,0,1,632,425.6) translate(0 24.800000000000004)"/><use xlink:href="#s" transform="matrix(1,0,0,1,632,425.6) translate(10.95 24.800000000000004)"/><use xlink:href="#t" transform="matrix(1,0,0,1,632,425.6) translate(34.9 24.800000000000004)"/><use xlink:href="#b" transform="matrix(1,0,0,1,632,425.6) translate(0 46.400000000000006)"/><use xlink:href="#c" transform="matrix(1,0,0,1,632,425.6) translate(10.95 46.400000000000006)"/><use xlink:href="#d" transform="matrix(1,0,0,1,632,425.6) translate(65.9 46.400000000000006)"/><use xlink:href="#b" transform="matrix(1,0,0,1,632,425.6) translate(0 68.00000000000001)"/><use xlink:href="#u" transform="matrix(1,0,0,1,632,425.6) translate(10.95 68.00000000000001)"/><use xlink:href="#v" transform="matrix(1,0,0,1,632,425.6) translate(44.95 68.00000000000001)"/><use xlink:href="#b" transform="matrix(1,0,0,1,632,425.6) translate(0 89.60000000000002)"/><use xlink:href="#w" transform="matrix(1,0,0,1,632,425.6) translate(10.95 89.60000000000002)"/><use xlink:href="#d" transform="matrix(1,0,0,1,632,425.6) translate(84.9 89.60000000000002)"/><use xlink:href="#b" transform="matrix(1,0,0,1,632,425.6) translate(0 111.20000000000002)"/><use xlink:href="#x" transform="matrix(1,0,0,1,632,425.6) translate(10.95 111.20000000000002)"/><use xlink:href="#y" transform="matrix(1,0,0,1,632,425.6) translate(157.85 111.20000000000002)"/><use xlink:href="#b" transform="matrix(1,0,0,1,632,425.6) translate(0 132.8)"/><use xlink:href="#z" transform="matrix(1,0,0,1,632,425.6) translate(10.95 132.8)"/><use xlink:href="#d" transform="matrix(1,0,0,1,632,425.6) translate(95.9 132.8)"/><use xlink:href="#b" transform="matrix(1,0,0,1,632,425.6) translate(0 154.4)"/><use xlink:href="#A" transform="matrix(1,0,0,1,632,425.6) translate(10.95 154.4)"/><use xlink:href="#B" transform="matrix(1,0,0,1,632,425.6) translate(63.900000000000006 154.4)"/><use xlink:href="#g" transform="matrix(1,0,0,1,632,613.3) translate(0 25)"/><use xlink:href="#C" transform="matrix(1,0,0,1,632,613.3) translate(15.5 25)"/><use xlink:href="#g" transform="matrix(1,0,0,1,632,613.3) translate(0 46.6)"/><use xlink:href="#D" transform="matrix(1,0,0,1,632,613.3) translate(15.5 46.6)"/><use xlink:href="#g" transform="matrix(1,0,0,1,632,613.3) translate(0 68.2)"/><use xlink:href="#E" transform="matrix(1,0,0,1,632,613.3) translate(15.5 68.2)"/><path d="M1060 200h300v283h-300z" stroke="#333" stroke-width="2" fill="#fff"/><path d="M1060 237.6h300m-300 144.5h300" stroke="#333" stroke-width="2" fill="none"/><use xlink:href="#F" transform="matrix(1,0,0,1,1068,208) translate(116.6 14.6)"/><use xlink:href="#G" transform="matrix(1,0,0,1,1072,245.6) translate(0 24.89999999999999)"/><use xlink:href="#d" transform="matrix(1,0,0,1,1072,245.6) translate(130.85 24.89999999999999)"/><use xlink:href="#b" transform="matrix(1,0,0,1,1072,245.6) translate(0 46.49999999999999)"/><use xlink:href="#H" transform="matrix(1,0,0,1,1072,245.6) translate(10.95 46.49999999999999)"/><use xlink:href="#d" transform="matrix(1,0,0,1,1072,245.6) translate(103.9 46.49999999999999)"/><use xlink:href="#b" transform="matrix(1,0,0,1,1072,245.6) translate(0 68.1)"/><use xlink:href="#A" transform="matrix(1,0,0,1,1072,245.6) translate(10.95 68.1)"/><use xlink:href="#I" transform="matrix(1,0,0,1,1072,245.6) translate(63.900000000000006 68.1)"/><use xlink:href="#b" transform="matrix(1,0,0,1,1072,245.6) translate(0 89.70000000000002)"/><use xlink:href="#J" transform="matrix(1,0,0,1,1072,245.6) translate(10.95 89.70000000000002)"/><use xlink:href="#K" transform="matrix(1,0,0,1,1072,245.6) translate(72.85 89.70000000000002)"/><use xlink:href="#L" transform="matrix(1,0,0,1,1072,245.6) translate(0 111.30000000000001)"/><use xlink:href="#g" transform="matrix(1,0,0,1,1072,390.1) translate(0 25)"/><use xlink:href="#C" transform="matrix(1,0,0,1,1072,390.1) translate(15.5 25)"/><use xlink:href="#g" transform="matrix(1,0,0,1,1072,390.1) translate(0 46.6)"/><use xlink:href="#D" transform="matrix(1,0,0,1,1072,390.1) translate(15.5 46.6)"/><use xlink:href="#g" transform="matrix(1,0,0,1,1072,390.1) translate(0 68.2)"/><use xlink:href="#M" transform="matrix(1,0,0,1,1072,390.1) translate(15.5 68.2)"/><path d="M1080 816h300v305h-300z" stroke="#333" stroke-width="2" fill="#fff"/><path d="M1080 853.6h300m-300 166.1h300" stroke="#333" stroke-width="2" fill="none"/><use xlink:href="#N" transform="matrix(1,0,0,1,1088,823.9873617001817) translate(92.57499999999999 14.6)"/><use xlink:href="#b" transform="matrix(1,0,0,1,1092,861.5873617001818) translate(0 25.1)"/><use xlink:href="#s" transform="matrix(1,0,0,1,1092,861.5873617001818) translate(10.95 25.1)"/><use xlink:href="#t" transform="matrix(1,0,0,1,1092,861.5873617001818) translate(34.9 25.1)"/><use xlink:href="#b" transform="matrix(1,0,0,1,1092,861.5873617001818) translate(0 46.7)"/><use xlink:href="#O" transform="matrix(1,0,0,1,1092,861.5873617001818) translate(10.95 46.7)"/><use xlink:href="#y" transform="matrix(1,0,0,1,1092,861.5873617001818) translate(55.95 46.7)"/><use xlink:href="#b" transform="matrix(1,0,0,1,1092,861.5873617001818) translate(0 68.30000000000001)"/><use xlink:href="#P" transform="matrix(1,0,0,1,1092,861.5873617001818) translate(10.95 68.30000000000001)"/><use xlink:href="#I" transform="matrix(1,0,0,1,1092,861.5873617001818) translate(59.85000000000001 68.30000000000001)"/><use xlink:href="#b" transform="matrix(1,0,0,1,1092,861.5873617001818) translate(0 89.90000000000002)"/><use xlink:href="#Q" transform="matrix(1,0,0,1,1092,861.5873617001818) translate(10.95 89.90000000000002)"/><use xlink:href="#d" transform="matrix(1,0,0,1,1092,861.5873617001818) translate(49.900000000000006 89.90000000000002)"/><use xlink:href="#b" transform="matrix(1,0,0,1,1092,861.5873617001818) translate(0 111.50000000000001)"/><use xlink:href="#R" transform="matrix(1,0,0,1,1092,861.5873617001818) translate(10.95 111.50000000000001)"/><use xlink:href="#d" transform="matrix(1,0,0,1,1092,861.5873617001818) translate(75.8 111.50000000000001)"/><use xlink:href="#b" transform="matrix(1,0,0,1,1092,861.5873617001818) translate(0 133.1)"/><use xlink:href="#S" transform="matrix(1,0,0,1,1092,861.5873617001818) translate(10.95 133.1)"/><use xlink:href="#T" transform="matrix(1,0,0,1,1092,861.5873617001818) translate(78.9 133.1)"/><g><use xlink:href="#g" transform="matrix(1,0,0,1,1092,1027.6873617001818) translate(0 25)"/><use xlink:href="#U" transform="matrix(1,0,0,1,1092,1027.6873617001818) translate(15.5 25)"/><use xlink:href="#V" transform="matrix(1,0,0,1,1092,1027.6873617001818) translate(0 46.6)"/><use xlink:href="#f" transform="matrix(1,0,0,1,1092,1027.6873617001818) translate(0 68.2)"/></g><path d="M180 920h300v240H180z" stroke="#333" stroke-width="2" fill="#fff"/><path d="M180 957.6h300m-300 144.5h300" stroke="#333" stroke-width="2" fill="none"/><g><use xlink:href="#W" transform="matrix(1,0,0,1,188,928) translate(81.14999999999999 14.6)"/><use xlink:href="#X" transform="matrix(1,0,0,1,188,928) translate(143 14.6)"/></g><g><use xlink:href="#b" transform="matrix(1,0,0,1,192,965.6) translate(0 24.89999999999999)"/><use xlink:href="#J" transform="matrix(1,0,0,1,192,965.6) translate(10.95 24.89999999999999)"/><use xlink:href="#K" transform="matrix(1,0,0,1,192,965.6) translate(72.85 24.89999999999999)"/><use xlink:href="#b" transform="matrix(1,0,0,1,192,965.6) translate(0 46.49999999999999)"/><use xlink:href="#Y" transform="matrix(1,0,0,1,192,965.6) translate(10.95 46.49999999999999)"/><use xlink:href="#t" transform="matrix(1,0,0,1,192,965.6) translate(81.85000000000001 46.49999999999999)"/><use xlink:href="#b" transform="matrix(1,0,0,1,192,965.6) translate(0 68.1)"/><use xlink:href="#Z" transform="matrix(1,0,0,1,192,965.6) translate(10.95 68.1)"/><use xlink:href="#I" transform="matrix(1,0,0,1,192,965.6) translate(62.75 68.1)"/><use xlink:href="#b" transform="matrix(1,0,0,1,192,965.6) translate(0 89.70000000000002)"/><use xlink:href="#aa" transform="matrix(1,0,0,1,192,965.6) translate(10.95 89.70000000000002)"/><use xlink:href="#I" transform="matrix(1,0,0,1,192,965.6) translate(103.85000000000001 89.70000000000002)"/><use xlink:href="#f" transform="matrix(1,0,0,1,192,965.6) translate(0 111.30000000000001)"/></g><g><use xlink:href="#b" transform="matrix(1,0,0,1,192,1110.1) translate(0 25.1)"/><use xlink:href="#ab" transform="matrix(1,0,0,1,192,1110.1) translate(10.95 25.1)"/></g><path d="M620 877h300v283H620z" stroke="#333" stroke-width="2" fill="#fff"/><path d="M620 914.6h300m-300 144.5h300" stroke="#333" stroke-width="2" fill="none"/><g><use xlink:href="#ac" transform="matrix(1,0,0,1,628,885) translate(78.64999999999999 14.6)"/></g><g><use xlink:href="#b" transform="matrix(1,0,0,1,632,922.6) translate(0 24.89999999999999)"/><use xlink:href="#J" transform="matrix(1,0,0,1,632,922.6) translate(10.95 24.89999999999999)"/><use xlink:href="#K" transform="matrix(1,0,0,1,632,922.6) translate(72.85 24.89999999999999)"/><use xlink:href="#b" transform="matrix(1,0,0,1,632,922.6) translate(0 46.49999999999999)"/><use xlink:href="#ad" transform="matrix(1,0,0,1,632,922.6) translate(10.95 46.49999999999999)"/><use xlink:href="#y" transform="matrix(1,0,0,1,632,922.6) translate(60.95 46.49999999999999)"/><use xlink:href="#b" transform="matrix(1,0,0,1,632,922.6) translate(0 68.1)"/><use xlink:href="#P" transform="matrix(1,0,0,1,632,922.6) translate(10.95 68.1)"/><use xlink:href="#I" transform="matrix(1,0,0,1,632,922.6) translate(59.85000000000001 68.1)"/><use xlink:href="#b" transform="matrix(1,0,0,1,632,922.6) translate(0 89.70000000000002)"/><use xlink:href="#aa" transform="matrix(1,0,0,1,632,922.6) translate(10.95 89.70000000000002)"/><use xlink:href="#I" transform="matrix(1,0,0,1,632,922.6) translate(103.85000000000001 89.70000000000002)"/><use xlink:href="#b" transform="matrix(1,0,0,1,632,922.6) translate(0 111.30000000000001)"/><use xlink:href="#ae" transform="matrix(1,0,0,1,632,922.6) translate(10.95 111.30000000000001)"/><use xlink:href="#af" transform="matrix(1,0,0,1,632,922.6) translate(88.85000000000001 111.30000000000001)"/></g><g><use xlink:href="#g" transform="matrix(1,0,0,1,632,1067.1) translate(0 25)"/><use xlink:href="#ag" transform="matrix(1,0,0,1,632,1067.1) translate(15.5 25)"/><use xlink:href="#g" transform="matrix(1,0,0,1,632,1067.1) translate(0 46.6)"/><use xlink:href="#ah" transform="matrix(1,0,0,1,632,1067.1) translate(15.5 46.6)"/><use xlink:href="#g" transform="matrix(1,0,0,1,632,1067.1) translate(0 68.2)"/><use xlink:href="#ai" transform="matrix(1,0,0,1,632,1067.1) translate(15.5 68.2)"/></g><path d="M180 140h300v283H180z" stroke="#333" stroke-width="2" fill="#fff"/><path d="M180 177.6h300M180 278.9h300" stroke="#333" stroke-width="2" fill="none"/><g><use xlink:href="#aj" transform="matrix(1,0,0,1,188,148) translate(93.77499999999999 14.6)"/><use xlink:href="#ak" transform="matrix(1,0,0,1,188,148) translate(135.375 14.6)"/></g><g><use xlink:href="#b" transform="matrix(1,0,0,1,192,185.6) translate(0 25)"/><use xlink:href="#al" transform="matrix(1,0,0,1,192,185.6) translate(10.95 25)"/><use xlink:href="#d" transform="matrix(1,0,0,1,192,185.6) translate(134.8 25)"/><use xlink:href="#b" transform="matrix(1,0,0,1,192,185.6) translate(0 46.6)"/><use xlink:href="#am" transform="matrix(1,0,0,1,192,185.6) translate(10.95 46.6)"/><use xlink:href="#d" transform="matrix(1,0,0,1,192,185.6) translate(69.95 46.6)"/><use xlink:href="#b" transform="matrix(1,0,0,1,192,185.6) translate(0 68.2)"/><use xlink:href="#J" transform="matrix(1,0,0,1,192,185.6) translate(10.95 68.2)"/><use xlink:href="#an" transform="matrix(1,0,0,1,192,185.6) translate(72.85 68.2)"/></g><g><use xlink:href="#g" transform="matrix(1,0,0,1,192,286.9) translate(0 24.89999999999999)"/><use xlink:href="#ao" transform="matrix(1,0,0,1,192,286.9) translate(15.5 24.89999999999999)"/><use xlink:href="#g" transform="matrix(1,0,0,1,192,286.9) translate(0 46.49999999999999)"/><use xlink:href="#ap" transform="matrix(1,0,0,1,192,286.9) translate(15.5 46.49999999999999)"/><use xlink:href="#g" transform="matrix(1,0,0,1,192,286.9) translate(0 68.1)"/><use xlink:href="#aq" transform="matrix(1,0,0,1,192,286.9) translate(15.5 68.1)"/><use xlink:href="#g" transform="matrix(1,0,0,1,192,286.9) translate(0 89.70000000000002)"/><use xlink:href="#ar" transform="matrix(1,0,0,1,192,286.9) translate(15.5 89.70000000000002)"/><use xlink:href="#g" transform="matrix(1,0,0,1,192,286.9) translate(0 111.30000000000001)"/><use xlink:href="#as" transform="matrix(1,0,0,1,192,286.9) translate(15.5 111.30000000000001)"/></g><path d="M509.53 629.98H481.5V629h28.03zm68.36-86H562l-1.82.14-1.76.42-1.67.7-1.54.94-1.38 1.17-1.17 1.38-.95 1.54-.7 1.67-.4 1.76-.15 1.82v62l-.16 1.93-.45 1.9-.75 1.8-1.03 1.68-1.28 1.5-1.5 1.26-1.66 1.02-1.8.75-1.9.45-1.94.15h-18.5v-.95H538l1.82-.14 1.76-.42 1.67-.7 1.54-.94 1.38-1.17 1.17-1.38.95-1.54.7-1.67.4-1.76.15-1.82v-62l.16-1.93.45-1.9.75-1.8 1.03-1.68 1.28-1.5 1.5-1.26 1.66-1.02 1.8-.75 1.9-.45 1.94-.15h15.9zm24.72 0H587.9V543h14.72z" stroke="#333" stroke-width=".05" fill="#333"/><path d="M481.5 629.98h-.5V629h.5z" fill="#333"/><path stroke="#333" stroke-width=".05" fill="#333"/><path d="M617.38 543.5l-14.26 4.63v-9.26z" fill="#333"/><path d="M618.92 543.5l-16.28 5.3v-10.6zm-15.33 3.98l12.25-3.98-12.26-3.98z" stroke="#333" stroke-width=".05" fill="#333"/><g><use xlink:href="#at" transform="matrix(1,0,0,1,509.5265259128522,618.7) translate(0.004999999999999893 14.4)"/></g><g><use xlink:href="#au" transform="matrix(1,0,0,1,577.8901901949794,532.7) translate(0.004999999999999893 14.4)"/></g><path d="M766.87 362.62h-.95v-31.6h.95zm-10.53-81.44l1.9.45 1.82.75 1.67 1.03 1.5 1.28 1.26 1.5 1 1.66.76 1.8.46 1.9.15 1.94v15.95h-.95v-15.9l-.15-1.83-.42-1.76-.7-1.67-.93-1.54-1.18-1.38-1.37-1.17-1.55-.95-1.67-.7-1.75-.4-1.83-.15H521.33v-.96H754.4zm-274.84.8v-.96h29.83v.96z" stroke="#333" stroke-width=".05" fill="#333"/><path d="M481.5 281.98h-.5v-.96h.5z" fill="#333"/><path stroke="#333" stroke-width=".05" fill="#333"/><path d="M766.4 377.38l-4.64-14.26h9.27z" fill="#333"/><path d="M766.4 378.92l-5.3-16.28h10.58zm-4-15.33l4 12.25 3.97-12.26z" stroke="#333" stroke-width=".05" fill="#333"/><g><use xlink:href="#at" transform="matrix(1,0,0,1,511.3255697097503,270.7) translate(0.004999999999999893 14.4)"/></g><g><use xlink:href="#at" transform="matrix(1,0,0,1,761.392657478584,309.42979584785905) translate(0.004999999999999893 14.4)"/></g><path d="M946.7 543.98h-25.2V543h25.2zm61.16-202h-5.84l-1.82.14-1.76.42-1.67.7-1.54.94-1.38 1.17-1.17 1.38-.95 1.54-.7 1.67-.4 1.76-.15 1.82v178l-.16 1.93-.45 1.9-.75 1.8-1.03 1.68-1.28 1.5-1.5 1.26-1.66 1.02-1.8.75-1.9.45-1.94.15H956.7v-.95h21.28l1.82-.14 1.76-.42 1.67-.7 1.54-.94 1.38-1.17 1.17-1.38.95-1.54.7-1.67.4-1.76.15-1.82v-178l.16-1.93.45-1.9.75-1.8 1.03-1.68 1.28-1.5 1.5-1.26 1.66-1.02 1.8-.75 1.9-.45 1.94-.16h5.88zm34.76 0h-24.76v-.96h24.76z" stroke="#333" stroke-width=".05" fill="#333"/><path d="M921.5 543.98h-.5V543h.5z" fill="#333"/><path stroke="#333" stroke-width=".05" fill="#333"/><path d="M1057.38 341.5l-14.26 4.63v-9.26z" fill="#333"/><path d="M1058.92 341.5l-16.28 5.3v-10.6zm-15.33 3.98l12.25-3.98-12.26-3.98z" stroke="#333" stroke-width=".05" fill="#333"/><g><use xlink:href="#at" transform="matrix(1,0,0,1,1007.8616576536216,330.7) translate(0.004999999999999893 14.4)"/></g><path d="M1230.47 798.6h-.94v-7h.94zm-10.52-255.42l1.9.45 1.8.75 1.68 1.03 1.5 1.28 1.26 1.5 1.02 1.66.75 1.8.45 1.9.15 1.94v214.5h-.94V555.52l-.15-1.82-.42-1.76-.7-1.67-.94-1.54-1.17-1.38-1.38-1.17-1.54-.95-1.67-.7-1.76-.4-1.82-.15h-261.3V543h261.34zm-298.45.8V543h25.2v.96z" stroke="#333" stroke-width=".05" fill="#333"/><path d="M921.5 543.98h-.5V543h.5z" fill="#333"/><path stroke="#333" stroke-width=".05" fill="#333"/><path d="M1230 813.37l-4.63-14.27h9.27z" fill="#333"/><path d="M1230 814.9l-5.3-16.27h10.6zm-3.98-15.32l3.98 12.25 3.98-12.25z" stroke="#333" stroke-width=".05" fill="#333"/><g><use xlink:href="#at" transform="matrix(1,0,0,1,946.6941685590867,532.7) translate(0.004999999999999893 14.4)"/></g><g><use xlink:href="#au" transform="matrix(1,0,0,1,1225,769.9850078537687) translate(0.004999999999999893 14.4)"/></g><path d="M770.48 859.62h-.96v-15.86h.96zm0-37.46h-.96V762.8h.96zm0-80.96h-.96v-32.7h.96z" stroke="#333" stroke-width=".05" fill="#333"/><path d="M770.48 708.5h-.96v-.5h.96z" fill="#333"/><path stroke="#333" stroke-width=".05" fill="#333"/><path d="M770 874.38l-4.63-14.26h9.26z" fill="#333"/><path d="M770 875.92l-5.3-16.28h10.6zm-3.98-15.33l3.98 12.25 3.98-12.26z" stroke="#333" stroke-width=".05" fill="#333"/><g><use xlink:href="#au" transform="matrix(1,0,0,1,765,822.1572779638132) translate(0.004999999999999893 14.4)"/></g><path d="M330.48 918.5h-.96v-38.76h.96zm440-116.98l-.16 1.93-.45 1.9-.75 1.8-1.03 1.68-1.28 1.5-1.5 1.26-1.66 1.02-1.8.75-1.9.45-1.94.15h-416l-1.82.15-1.76.42-1.67.7-1.54.94-1.38 1.17-1.17 1.38-.95 1.54-.7 1.67-.4 1.76-.15 1.82v32.62h-.96v-32.66l.16-1.93.45-1.9.75-1.8 1.03-1.68 1.28-1.5 1.5-1.26 1.66-1.02 1.8-.75 1.9-.45 1.94-.15h416l1.82-.15 1.76-.42 1.67-.7 1.54-.94 1.38-1.17 1.17-1.38.95-1.54.7-1.67.4-1.76.15-1.82V762.8h.96zm0-60.32h-.96v-16.82h.96z" stroke="#333" stroke-width=".05" fill="#333"/><path d="M330.48 919h-.96v-.5h.96z" fill="#333"/><path stroke="#333" stroke-width=".05" fill="#333"/><path d="M774.63 723.88h-9.26l4.63-14.26z" fill="#333"/><path d="M775.3 724.36h-10.6l5.3-16.28zm-9.28-.95h7.96L770 711.16z" stroke="#333" stroke-width=".05" fill="#333"/><g><use xlink:href="#at" transform="matrix(1,0,0,1,325,858.1381539017749) translate(0.004999999999999893 14.4)"/></g><g><use xlink:href="#at" transform="matrix(1,0,0,1,765,741.2003071033994) translate(0.004999999999999893 14.4)"/></g><path d="M330.48 518.5h-.96v-29.15h.96zm0-50.75h-.96v-27.37h.96z" stroke="#333" stroke-width=".05" fill="#333"/><path d="M330.48 519h-.96v-.5h.96z" fill="#333"/><path stroke="#333" stroke-width=".05" fill="#333"/><path d="M334.63 439.88h-9.26l4.63-14.26z" fill="#333"/><path d="M335.3 440.36h-10.6l5.3-16.28zm-9.28-.95h7.96L330 427.16z" stroke="#333" stroke-width=".05" fill="#333"/><g><use xlink:href="#at" transform="matrix(1,0,0,1,325,467.74564997489045) translate(0.004999999999999893 14.4)"/></g><defs><path fill="#333" d="M182-130c37 4 62 22 62 59C244 23 116-4 24 0v-248c84 5 203-23 205 63 0 31-19 50-47 55zM76-148c40-3 101 13 101-30 0-44-60-28-101-31v61zm0 110c48-3 116 14 116-37 0-48-69-32-116-35v72" id="av"/><path fill="#333" d="M133-34C117-15 103 5 69 4 32 3 11-16 11-54c-1-60 55-63 116-61 1-26-3-47-28-47-18 1-26 9-28 27l-52-2c7-38 36-58 82-57s74 22 75 68l1 82c-1 14 12 18 25 15v27c-30 8-71 5-69-32zm-48 3c29 0 43-24 42-57-32 0-66-3-65 30 0 17 8 27 23 27" id="aw"/><path fill="#333" d="M135-194c87-1 58 113 63 194h-50c-7-57 23-157-34-157-59 0-34 97-39 157H25l-1-190h47c2 12-1 28 3 38 12-26 28-41 61-42" id="ax"/><path fill="#333" d="M190-63c-7 42-38 67-86 67-59 0-84-38-90-98-12-110 154-137 174-36l-49 2c-2-19-15-32-35-32-30 0-35 28-38 64-6 74 65 87 74 30" id="ay"/><path fill="#333" d="M110-194c64 0 96 36 96 99 0 64-35 99-97 99-61 0-95-36-95-99 0-62 34-99 96-99zm-1 164c35 0 45-28 45-65 0-40-10-65-43-65-34 0-45 26-45 65 0 36 10 65 43 65" id="az"/><g id="a"><use transform="matrix(0.05,0,0,0.05,0,0)" xlink:href="#av"/><use transform="matrix(0.05,0,0,0.05,12.950000000000001,0)" xlink:href="#aw"/><use transform="matrix(0.05,0,0,0.05,22.950000000000003,0)" xlink:href="#ax"/><use transform="matrix(0.05,0,0,0.05,33.900000000000006,0)" xlink:href="#ay"/><use transform="matrix(0.05,0,0,0.05,43.900000000000006,0)" xlink:href="#az"/></g><path fill="#333" d="M16-82v-28h88v28H16" id="aA"/><use transform="matrix(0.05,0,0,0.05,0,0)" xlink:href="#aA" id="b"/><path fill="#333" d="M117-194c89-4 53 116 60 194h-32v-121c0-31-8-49-39-48C34-167 62-67 57 0H25l-1-190h30c1 10-1 24 2 32 11-22 29-35 61-36" id="aB"/><path fill="#333" d="M100-194c62-1 85 37 85 99 1 63-27 99-86 99S16-35 15-95c0-66 28-99 85-99zM99-20c44 1 53-31 53-75 0-43-8-75-51-75s-53 32-53 75 10 74 51 75" id="aC"/><path fill="#333" d="M210-169c-67 3-38 105-44 169h-31v-121c0-29-5-50-35-48C34-165 62-65 56 0H25l-1-190h30c1 10-1 24 2 32 10-44 99-50 107 0 11-21 27-35 58-36 85-2 47 119 55 194h-31v-121c0-29-5-49-35-48" id="aD"/><path fill="#333" d="M100-194c63 0 86 42 84 106H49c0 40 14 67 53 68 26 1 43-12 49-29l28 8c-11 28-37 45-77 45C44 4 14-33 15-96c1-61 26-98 85-98zm52 81c6-60-76-77-97-28-3 7-6 17-6 28h103" id="aE"/><path fill="#333" d="M33-154v-36h34v36H33zM33 0v-36h34V0H33" id="aF"/><g id="c"><use transform="matrix(0.05,0,0,0.05,0,0)" xlink:href="#aB"/><use transform="matrix(0.05,0,0,0.05,10,0)" xlink:href="#aC"/><use transform="matrix(0.05,0,0,0.05,20,0)" xlink:href="#aD"/><use transform="matrix(0.05,0,0,0.05,34.95,0)" xlink:href="#aE"/><use transform="matrix(0.05,0,0,0.05,44.95,0)" xlink:href="#aF"/></g><path fill="#333" d="M135-143c-3-34-86-38-87 0 15 53 115 12 119 90S17 21 10-45l28-5c4 36 97 45 98 0-10-56-113-15-118-90-4-57 82-63 122-42 12 7 21 19 24 35" id="aG"/><path fill="#333" d="M59-47c-2 24 18 29 38 22v24C64 9 27 4 27-40v-127H5v-23h24l9-43h21v43h35v23H59v120" id="aH"/><path fill="#333" d="M114-163C36-179 61-72 57 0H25l-1-190h30c1 12-1 29 2 39 6-27 23-49 58-41v29" id="aI"/><path fill="#333" d="M24-231v-30h32v30H24zM24 0v-190h32V0H24" id="aJ"/><path fill="#333" d="M177-190C167-65 218 103 67 71c-23-6-38-20-44-43l32-5c15 47 100 32 89-28v-30C133-14 115 1 83 1 29 1 15-40 15-95c0-56 16-97 71-98 29-1 48 16 59 35 1-10 0-23 2-32h30zM94-22c36 0 50-32 50-73 0-42-14-75-50-75-39 0-46 34-46 75s6 73 46 73" id="aK"/><g id="d"><use transform="matrix(0.05,0,0,0.05,0,0)" xlink:href="#aG"/><use transform="matrix(0.05,0,0,0.05,9,0)" xlink:href="#aH"/><use transform="matrix(0.05,0,0,0.05,14,0)" xlink:href="#aI"/><use transform="matrix(0.05,0,0,0.05,19.95,0)" xlink:href="#aJ"/><use transform="matrix(0.05,0,0,0.05,23.9,0)" xlink:href="#aB"/><use transform="matrix(0.05,0,0,0.05,33.9,0)" xlink:href="#aK"/></g><path fill="#333" d="M85-194c31 0 48 13 60 33l-1-100h32l1 261h-30c-2-10 0-23-3-31C134-8 116 4 85 4 32 4 16-35 15-94c0-66 23-100 70-100zm9 24c-40 0-46 34-46 75 0 40 6 74 45 74 42 0 51-32 51-76 0-42-9-74-50-73" id="aL"/><path fill="#333" d="M96-169c-40 0-48 33-48 73s9 75 48 75c24 0 41-14 43-38l32 2c-6 37-31 61-74 61-59 0-76-41-82-99-10-93 101-131 147-64 4 7 5 14 7 22l-32 3c-4-21-16-35-41-35zm3 187c19-1 33 8 33 26 0 31-30 33-64 32V58c18 2 39 4 41-13 1-15-18-13-34-13L87 0h19" id="aM"/><g id="e"><use transform="matrix(0.05,0,0,0.05,0,0)" xlink:href="#aE"/><use transform="matrix(0.05,0,0,0.05,10,0)" xlink:href="#aB"/><use transform="matrix(0.05,0,0,0.05,20,0)" xlink:href="#aL"/><use transform="matrix(0.05,0,0,0.05,30,0)" xlink:href="#aE"/><use transform="matrix(0.05,0,0,0.05,40,0)" xlink:href="#aI"/><use transform="matrix(0.05,0,0,0.05,45.95,0)" xlink:href="#aE"/><use transform="matrix(0.05,0,0,0.05,55.95,0)" xlink:href="#aM"/><use transform="matrix(0.05,0,0,0.05,64.95,0)" xlink:href="#aC"/><use transform="matrix(0.05,0,0,0.05,74.95,0)" xlink:href="#aF"/></g><path fill="#333" d="M118-107v75H92v-75H18v-26h74v-75h26v75h74v26h-74" id="aN"/><use transform="matrix(0.05,0,0,0.05,0,0)" xlink:href="#aN" id="g"/><path fill="#333" d="M96-169c-40 0-48 33-48 73s9 75 48 75c24 0 41-14 43-38l32 2c-6 37-31 61-74 61-59 0-76-41-82-99-10-93 101-131 147-64 4 7 5 14 7 22l-32 3c-4-21-16-35-41-35" id="aO"/><path fill="#333" d="M141-36C126-15 110 5 73 4 37 3 15-17 15-53c-1-64 63-63 125-63 3-35-9-54-41-54-24 1-41 7-42 31l-33-3c5-37 33-52 76-52 45 0 72 20 72 64v82c-1 20 7 32 28 27v20c-31 9-61-2-59-35zM48-53c0 20 12 33 32 33 41-3 63-29 60-74-43 2-92-5-92 41" id="aP"/><path fill="#333" d="M-5 72V49h209v23H-5" id="aQ"/><path fill="#333" d="M87 75C49 33 22-17 22-94c0-76 28-126 65-167h31c-38 41-64 92-64 168S80 34 118 75H87" id="aR"/><path fill="#333" d="M33-261c38 41 65 92 65 168S71 34 33 75H2C39 34 66-17 66-93S39-220 2-261h31" id="aS"/><g id="h"><use transform="matrix(0.05,0,0,0.05,0,0)" xlink:href="#aO"/><use transform="matrix(0.05,0,0,0.05,9,0)" xlink:href="#aI"/><use transform="matrix(0.05,0,0,0.05,14.949999999999998,0)" xlink:href="#aJ"/><use transform="matrix(0.05,0,0,0.05,18.9,0)" xlink:href="#aP"/><use transform="matrix(0.05,0,0,0.05,28.899999999999995,0)" xlink:href="#aI"/><use transform="matrix(0.05,0,0,0.05,34.85,0)" xlink:href="#aQ"/><use transform="matrix(0.05,0,0,0.05,44.85,0)" xlink:href="#aO"/><use transform="matrix(0.05,0,0,0.05,53.85,0)" xlink:href="#aC"/><use transform="matrix(0.05,0,0,0.05,63.85,0)" xlink:href="#aB"/><use transform="matrix(0.05,0,0,0.05,73.85,0)" xlink:href="#aH"/><use transform="matrix(0.05,0,0,0.05,78.85,0)" xlink:href="#aP"/><use transform="matrix(0.05,0,0,0.05,88.85,0)" xlink:href="#aR"/><use transform="matrix(0.05,0,0,0.05,94.8,0)" xlink:href="#aS"/></g><path fill="#333" d="M115-194c55 1 70 41 70 98S169 2 115 4C84 4 66-9 55-30l1 105H24l-1-265h31l2 30c10-21 28-34 59-34zm-8 174c40 0 45-34 45-75s-6-73-45-74c-42 0-51 32-51 76 0 43 10 73 51 73" id="aT"/><path fill="#333" d="M108 0H70L1-190h34L89-25l56-165h34" id="aU"/><path fill="#333" d="M101-234c-31-9-42 10-38 44h38v23H63V0H32v-167H5v-23h27c-7-52 17-82 69-68v24" id="aV"/><g id="i"><use transform="matrix(0.05,0,0,0.05,0,0)" xlink:href="#aP"/><use transform="matrix(0.05,0,0,0.05,10,0)" xlink:href="#aT"/><use transform="matrix(0.05,0,0,0.05,20,0)" xlink:href="#aI"/><use transform="matrix(0.05,0,0,0.05,25.950000000000003,0)" xlink:href="#aC"/><use transform="matrix(0.05,0,0,0.05,35.95,0)" xlink:href="#aU"/><use transform="matrix(0.05,0,0,0.05,44.95,0)" xlink:href="#aP"/><use transform="matrix(0.05,0,0,0.05,54.95,0)" xlink:href="#aI"/><use transform="matrix(0.05,0,0,0.05,60.900000000000006,0)" xlink:href="#aQ"/><use transform="matrix(0.05,0,0,0.05,70.9,0)" xlink:href="#aV"/><use transform="matrix(0.05,0,0,0.05,75.9,0)" xlink:href="#aJ"/><use transform="matrix(0.05,0,0,0.05,79.85000000000001,0)" xlink:href="#aB"/><use transform="matrix(0.05,0,0,0.05,89.85000000000001,0)" xlink:href="#aP"/><use transform="matrix(0.05,0,0,0.05,99.85000000000001,0)" xlink:href="#aB"/><use transform="matrix(0.05,0,0,0.05,109.85000000000001,0)" xlink:href="#aO"/><use transform="matrix(0.05,0,0,0.05,118.85000000000001,0)" xlink:href="#aJ"/><use transform="matrix(0.05,0,0,0.05,122.80000000000001,0)" xlink:href="#aP"/><use transform="matrix(0.05,0,0,0.05,132.8,0)" xlink:href="#aD"/><use transform="matrix(0.05,0,0,0.05,147.75,0)" xlink:href="#aE"/><use transform="matrix(0.05,0,0,0.05,157.75,0)" xlink:href="#aB"/><use transform="matrix(0.05,0,0,0.05,167.75,0)" xlink:href="#aH"/><use transform="matrix(0.05,0,0,0.05,172.75,0)" xlink:href="#aC"/></g><path fill="#a9afb8" d="M67-125c0 53 21 87 73 88 37 1 54-22 65-47l45 17C233-25 199 4 140 4 58 4 20-42 15-125 8-235 124-281 211-232c18 10 29 29 36 50l-46 12c-8-25-30-41-62-41-52 0-71 34-72 86" id="aW"/><path fill="#a9afb8" d="M25 0v-261h50V0H25" id="aX"/><path fill="#a9afb8" d="M133-34C117-15 103 5 69 4 32 3 11-16 11-54c-1-60 55-63 116-61 1-26-3-47-28-47-18 1-26 9-28 27l-52-2c7-38 36-58 82-57s74 22 75 68l1 82c-1 14 12 18 25 15v27c-30 8-71 5-69-32zm-48 3c29 0 43-24 42-57-32 0-66-3-65 30 0 17 8 27 23 27" id="aY"/><path fill="#a9afb8" d="M137-138c1-29-70-34-71-4 15 46 118 7 119 86 1 83-164 76-172 9l43-7c4 19 20 25 44 25 33 8 57-30 24-41C81-84 22-81 20-136c-2-80 154-74 161-7" id="aZ"/><path fill="#a9afb8" d="M185-48c-13 30-37 53-82 52C43 2 14-33 14-96s30-98 90-98c62 0 83 45 84 108H66c0 31 8 55 39 56 18 0 30-7 34-22zm-45-69c5-46-57-63-70-21-2 6-4 13-4 21h74" id="ba"/><g id="j"><use transform="matrix(0.0728395061728395,0,0,0.0728395061728395,0,0)" xlink:href="#aW"/><use transform="matrix(0.0728395061728395,0,0,0.0728395061728395,18.86543209876543,0)" xlink:href="#aX"/><use transform="matrix(0.0728395061728395,0,0,0.0728395061728395,26.14938271604938,0)" xlink:href="#aY"/><use transform="matrix(0.0728395061728395,0,0,0.0728395061728395,40.717283950617286,0)" xlink:href="#aZ"/><use transform="matrix(0.0728395061728395,0,0,0.0728395061728395,55.28518518518518,0)" xlink:href="#aZ"/><use transform="matrix(0.0728395061728395,0,0,0.0728395061728395,69.85308641975308,0)" xlink:href="#ba"/></g><path fill="#a9afb8" d="M238-95c0 69-44 99-111 99C63 4 22-25 22-93v-155h51v151c-1 38 19 59 55 60 90 1 49-130 58-211h52v153" id="bb"/><path fill="#a9afb8" d="M230 0l2-204L168 0h-37L68-204 70 0H24v-248h70l56 185 57-185h69V0h-46" id="bc"/><path fill="#a9afb8" d="M24 0v-248h52v208h133V0H24" id="bd"/><g id="k"><use transform="matrix(0.0728395061728395,0,0,0.0728395061728395,0,0)" xlink:href="#bb"/><use transform="matrix(0.0728395061728395,0,0,0.0728395061728395,18.86543209876543,0)" xlink:href="#bc"/><use transform="matrix(0.0728395061728395,0,0,0.0728395061728395,40.644444444444446,0)" xlink:href="#bd"/></g><path fill="#a9afb8" d="M33 0v-248h34V0H33" id="be"/><path fill="#a9afb8" d="M9 0v-24l116-142H16v-24h144v24L44-24h123V0H9" id="bf"/><path fill="#a9afb8" d="M141-36C126-15 110 5 73 4 37 3 15-17 15-53c-1-64 63-63 125-63 3-35-9-54-41-54-24 1-41 7-42 31l-33-3c5-37 33-52 76-52 45 0 72 20 72 64v82c-1 20 7 32 28 27v20c-31 9-61-2-59-35zM48-53c0 20 12 33 32 33 41-3 63-29 60-74-43 2-92-5-92 41" id="bg"/><path fill="#a9afb8" d="M115-194c53 0 69 39 70 98 0 66-23 100-70 100C84 3 66-7 56-30L54 0H23l1-261h32v101c10-23 28-34 59-34zm-8 174c40 0 45-34 45-75 0-40-5-75-45-74-42 0-51 32-51 76 0 43 10 73 51 73" id="bh"/><path fill="#a9afb8" d="M100-194c63 0 86 42 84 106H49c0 40 14 67 53 68 26 1 43-12 49-29l28 8c-11 28-37 45-77 45C44 4 14-33 15-96c1-61 26-98 85-98zm52 81c6-60-76-77-97-28-3 7-6 17-6 28h103" id="bi"/><path fill="#a9afb8" d="M24 0v-261h32V0H24" id="bj"/><g id="l"><use transform="matrix(0.04248971193415638,0,0,0.04248971193415638,0,0)" xlink:href="#be"/><use transform="matrix(0.04248971193415638,0,0,0.04248971193415638,4.248971193415637,0)" xlink:href="#bf"/><use transform="matrix(0.04248971193415638,0,0,0.04248971193415638,11.897119341563785,0)" xlink:href="#bg"/><use transform="matrix(0.04248971193415638,0,0,0.04248971193415638,20.39506172839506,0)" xlink:href="#bh"/><use transform="matrix(0.04248971193415638,0,0,0.04248971193415638,28.893004115226333,0)" xlink:href="#bi"/><use transform="matrix(0.04248971193415638,0,0,0.04248971193415638,37.39094650205761,0)" xlink:href="#bj"/></g><path fill="#a9afb8" d="M205 0l-28-72H64L36 0H1l101-248h38L239 0h-34zm-38-99l-47-123c-12 45-31 82-46 123h93" id="bk"/><path fill="#a9afb8" d="M100-194c62-1 85 37 85 99 1 63-27 99-86 99S16-35 15-95c0-66 28-99 85-99zM99-20c44 1 53-31 53-75 0-43-8-75-51-75s-53 32-53 75 10 74 51 75" id="bl"/><path fill="#a9afb8" d="M24-231v-30h32v30H24zM24 0v-190h32V0H24" id="bm"/><g id="m"><use transform="matrix(0.04248971193415638,0,0,0.04248971193415638,0,0)" xlink:href="#bk"/><use transform="matrix(0.04248971193415638,0,0,0.04248971193415638,10.19753086419753,0)" xlink:href="#bf"/><use transform="matrix(0.04248971193415638,0,0,0.04248971193415638,17.845679012345677,0)" xlink:href="#bl"/><use transform="matrix(0.04248971193415638,0,0,0.04248971193415638,26.343621399176953,0)" xlink:href="#bm"/><use transform="matrix(0.04248971193415638,0,0,0.04248971193415638,29.700308641975308,0)" xlink:href="#bg"/></g><path fill="#a9afb8" d="M32 76v-337h29V76H32" id="bn"/><use transform="matrix(0.04248971193415638,0,0,0.04248971193415638,0,0)" xlink:href="#bn" id="n"/><path fill="#a9afb8" d="M153-248C145-148 188 4 80 4 36 3 13-21 6-62l32-5c4 25 16 42 43 43 27 0 39-20 39-49v-147H72v-28h81" id="bo"/><path fill="#a9afb8" d="M84 4C-5 8 30-112 23-190h32v120c0 31 7 50 39 49 72-2 45-101 50-169h31l1 190h-30c-1-10 1-25-2-33-11 22-28 36-60 37" id="bp"/><path fill="#a9afb8" d="M179-190L93 31C79 59 56 82 12 73V49c39 6 53-20 64-50L1-190h34L92-34l54-156h33" id="bq"/><g id="o"><use transform="matrix(0.04248971193415638,0,0,0.04248971193415638,0,0)" xlink:href="#bo"/><use transform="matrix(0.04248971193415638,0,0,0.04248971193415638,7.648148148148148,0)" xlink:href="#bp"/><use transform="matrix(0.04248971193415638,0,0,0.04248971193415638,16.14609053497942,0)" xlink:href="#bj"/><use transform="matrix(0.04248971193415638,0,0,0.04248971193415638,19.502777777777776,0)" xlink:href="#bq"/></g><path fill="#a9afb8" d="M27 0v-27h64v-190l-56 39v-29l58-41h29v221h61V0H27" id="br"/><path fill="#a9afb8" d="M101-251c82-7 93 87 43 132L82-64C71-53 59-42 53-27h129V0H18c2-99 128-94 128-182 0-28-16-43-45-43s-46 15-49 41l-32-3c6-41 34-60 81-64" id="bs"/><path fill="#a9afb8" d="M68-38c1 34 0 65-14 84H32c9-13 17-26 17-46H33v-38h35" id="bt"/><g id="p"><use transform="matrix(0.04248971193415638,0,0,0.04248971193415638,0,0)" xlink:href="#br"/><use transform="matrix(0.04248971193415638,0,0,0.04248971193415638,8.497942386831275,0)" xlink:href="#bs"/><use transform="matrix(0.04248971193415638,0,0,0.04248971193415638,16.99588477366255,0)" xlink:href="#bt"/></g><path fill="#a9afb8" d="M101-251c68 0 85 55 85 127S166 4 100 4C33 4 14-52 14-124c0-73 17-127 87-127zm-1 229c47 0 54-49 54-102s-4-102-53-102c-51 0-55 48-55 102 0 53 5 102 54 102" id="bu"/><path fill="#a9afb8" d="M155-56V0h-30v-56H8v-25l114-167h33v167h35v25h-35zm-30-156c-27 46-58 90-88 131h88v-131" id="bv"/><g id="q"><use transform="matrix(0.04248971193415638,0,0,0.04248971193415638,0,0)" xlink:href="#bs"/><use transform="matrix(0.04248971193415638,0,0,0.04248971193415638,8.497942386831275,0)" xlink:href="#bu"/><use transform="matrix(0.04248971193415638,0,0,0.04248971193415638,16.99588477366255,0)" xlink:href="#bs"/><use transform="matrix(0.04248971193415638,0,0,0.04248971193415638,25.493827160493822,0)" xlink:href="#bv"/></g><path fill="#333" d="M67-125c0 53 21 87 73 88 37 1 54-22 65-47l45 17C233-25 199 4 140 4 58 4 20-42 15-125 8-235 124-281 211-232c18 10 29 29 36 50l-46 12c-8-25-30-41-62-41-52 0-71 34-72 86" id="bw"/><path fill="#333" d="M25 0v-261h50V0H25" id="bx"/><path fill="#333" d="M25-224v-37h50v37H25zM25 0v-190h50V0H25" id="by"/><path fill="#333" d="M185-48c-13 30-37 53-82 52C43 2 14-33 14-96s30-98 90-98c62 0 83 45 84 108H66c0 31 8 55 39 56 18 0 30-7 34-22zm-45-69c5-46-57-63-70-21-2 6-4 13-4 21h74" id="bz"/><path fill="#333" d="M115-3C79 11 28 4 28-45v-112H4v-33h27l15-45h31v45h36v33H77v99c-1 23 16 31 38 25v30" id="bA"/><g id="r"><use transform="matrix(0.05,0,0,0.05,0,0)" xlink:href="#bw"/><use transform="matrix(0.05,0,0,0.05,12.950000000000001,0)" xlink:href="#bx"/><use transform="matrix(0.05,0,0,0.05,17.950000000000003,0)" xlink:href="#by"/><use transform="matrix(0.05,0,0,0.05,22.950000000000003,0)" xlink:href="#bz"/><use transform="matrix(0.05,0,0,0.05,32.95,0)" xlink:href="#ax"/><use transform="matrix(0.05,0,0,0.05,43.900000000000006,0)" xlink:href="#bA"/><use transform="matrix(0.05,0,0,0.05,49.85000000000001,0)" xlink:href="#bz"/></g><g id="s"><use transform="matrix(0.05,0,0,0.05,0,0)" xlink:href="#aJ"/><use transform="matrix(0.05,0,0,0.05,3.95,0)" xlink:href="#aL"/><use transform="matrix(0.05,0,0,0.05,13.949999999999998,0)" xlink:href="#aF"/></g><g id="t"><use transform="matrix(0.05,0,0,0.05,0,0)" xlink:href="#aJ"/><use transform="matrix(0.05,0,0,0.05,3.95,0)" xlink:href="#aB"/><use transform="matrix(0.05,0,0,0.05,13.949999999999998,0)" xlink:href="#aH"/></g><g id="u"><use transform="matrix(0.05,0,0,0.05,0,0)" xlink:href="#aO"/><use transform="matrix(0.05,0,0,0.05,9,0)" xlink:href="#aT"/><use transform="matrix(0.05,0,0,0.05,19,0)" xlink:href="#aV"/><use transform="matrix(0.05,0,0,0.05,24,0)" xlink:href="#aF"/></g><g id="v"><use transform="matrix(0.05,0,0,0.05,0,0)" xlink:href="#aG"/><use transform="matrix(0.05,0,0,0.05,9,0)" xlink:href="#aI"/><use transform="matrix(0.05,0,0,0.05,14.949999999999998,0)" xlink:href="#aJ"/><use transform="matrix(0.05,0,0,0.05,18.9,0)" xlink:href="#aB"/><use transform="matrix(0.05,0,0,0.05,28.899999999999995,0)" xlink:href="#aK"/></g><path fill="#333" d="M24 0v-261h32V0H24" id="bB"/><g id="w"><use transform="matrix(0.05,0,0,0.05,0,0)" xlink:href="#aH"/><use transform="matrix(0.05,0,0,0.05,5,0)" xlink:href="#aE"/><use transform="matrix(0.05,0,0,0.05,15,0)" xlink:href="#bB"/><use transform="matrix(0.05,0,0,0.05,18.95,0)" xlink:href="#aE"/><use transform="matrix(0.05,0,0,0.05,28.950000000000003,0)" xlink:href="#aV"/><use transform="matrix(0.05,0,0,0.05,33.95,0)" xlink:href="#aC"/><use transform="matrix(0.05,0,0,0.05,43.95,0)" xlink:href="#aB"/><use transform="matrix(0.05,0,0,0.05,53.95,0)" xlink:href="#aE"/><use transform="matrix(0.05,0,0,0.05,63.95,0)" xlink:href="#aF"/></g><g id="x"><use transform="matrix(0.05,0,0,0.05,0,0)" xlink:href="#aL"/><use transform="matrix(0.05,0,0,0.05,10,0)" xlink:href="#aP"/><use transform="matrix(0.05,0,0,0.05,20,0)" xlink:href="#aH"/><use transform="matrix(0.05,0,0,0.05,25,0)" xlink:href="#aP"/><use transform="matrix(0.05,0,0,0.05,35,0)" xlink:href="#aQ"/><use transform="matrix(0.05,0,0,0.05,45,0)" xlink:href="#aB"/><use transform="matrix(0.05,0,0,0.05,55,0)" xlink:href="#aP"/><use transform="matrix(0.05,0,0,0.05,65,0)" xlink:href="#aG"/><use transform="matrix(0.05,0,0,0.05,74,0)" xlink:href="#aO"/><use transform="matrix(0.05,0,0,0.05,83,0)" xlink:href="#aJ"/><use transform="matrix(0.05,0,0,0.05,86.95,0)" xlink:href="#aD"/><use transform="matrix(0.05,0,0,0.05,101.9,0)" xlink:href="#aE"/><use transform="matrix(0.05,0,0,0.05,111.9,0)" xlink:href="#aB"/><use transform="matrix(0.05,0,0,0.05,121.9,0)" xlink:href="#aH"/><use transform="matrix(0.05,0,0,0.05,126.9,0)" xlink:href="#aC"/><use transform="matrix(0.05,0,0,0.05,136.9,0)" xlink:href="#aF"/></g><g id="y"><use transform="matrix(0.05,0,0,0.05,0,0)" xlink:href="#aL"/><use transform="matrix(0.05,0,0,0.05,10,0)" xlink:href="#aP"/><use transform="matrix(0.05,0,0,0.05,20,0)" xlink:href="#aH"/><use transform="matrix(0.05,0,0,0.05,25,0)" xlink:href="#aE"/></g><g id="z"><use transform="matrix(0.05,0,0,0.05,0,0)" xlink:href="#aE"/><use transform="matrix(0.05,0,0,0.05,10,0)" xlink:href="#aB"/><use transform="matrix(0.05,0,0,0.05,20,0)" xlink:href="#aL"/><use transform="matrix(0.05,0,0,0.05,30,0)" xlink:href="#aE"/><use transform="matrix(0.05,0,0,0.05,40,0)" xlink:href="#aI"/><use transform="matrix(0.05,0,0,0.05,45.95,0)" xlink:href="#aE"/><use transform="matrix(0.05,0,0,0.05,55.95,0)" xlink:href="#aO"/><use transform="matrix(0.05,0,0,0.05,64.95,0)" xlink:href="#aC"/><use transform="matrix(0.05,0,0,0.05,74.95,0)" xlink:href="#aF"/></g><g id="A"><use transform="matrix(0.05,0,0,0.05,0,0)" xlink:href="#aG"/><use transform="matrix(0.05,0,0,0.05,9,0)" xlink:href="#aP"/><use transform="matrix(0.05,0,0,0.05,19,0)" xlink:href="#bB"/><use transform="matrix(0.05,0,0,0.05,22.95,0)" xlink:href="#aL"/><use transform="matrix(0.05,0,0,0.05,32.95,0)" xlink:href="#aC"/><use transform="matrix(0.05,0,0,0.05,42.95,0)" xlink:href="#aF"/></g><g id="B"><use transform="matrix(0.05,0,0,0.05,0,0)" xlink:href="#aV"/><use transform="matrix(0.05,0,0,0.05,5,0)" xlink:href="#bB"/><use transform="matrix(0.05,0,0,0.05,8.95,0)" xlink:href="#aC"/><use transform="matrix(0.05,0,0,0.05,18.95,0)" xlink:href="#aP"/><use transform="matrix(0.05,0,0,0.05,28.950000000000003,0)" xlink:href="#aH"/></g><g id="C"><use transform="matrix(0.05,0,0,0.05,0,0)" xlink:href="#aL"/><use transform="matrix(0.05,0,0,0.05,10,0)" xlink:href="#aE"/><use transform="matrix(0.05,0,0,0.05,20,0)" xlink:href="#aT"/><use transform="matrix(0.05,0,0,0.05,30,0)" xlink:href="#aC"/><use transform="matrix(0.05,0,0,0.05,40,0)" xlink:href="#aG"/><use transform="matrix(0.05,0,0,0.05,49,0)" xlink:href="#aJ"/><use transform="matrix(0.05,0,0,0.05,52.95,0)" xlink:href="#aH"/><use transform="matrix(0.05,0,0,0.05,57.95,0)" xlink:href="#aP"/><use transform="matrix(0.05,0,0,0.05,67.95,0)" xlink:href="#aI"/><use transform="matrix(0.05,0,0,0.05,73.9,0)" xlink:href="#aR"/><use transform="matrix(0.05,0,0,0.05,79.85000000000001,0)" xlink:href="#aS"/></g><g id="D"><use transform="matrix(0.05,0,0,0.05,0,0)" xlink:href="#aG"/><use transform="matrix(0.05,0,0,0.05,9,0)" xlink:href="#aP"/><use transform="matrix(0.05,0,0,0.05,19,0)" xlink:href="#aO"/><use transform="matrix(0.05,0,0,0.05,28,0)" xlink:href="#aP"/><use transform="matrix(0.05,0,0,0.05,38,0)" xlink:href="#aI"/><use transform="matrix(0.05,0,0,0.05,43.95,0)" xlink:href="#aR"/><use transform="matrix(0.05,0,0,0.05,49.900000000000006,0)" xlink:href="#aS"/></g><g id="E"><use transform="matrix(0.05,0,0,0.05,0,0)" xlink:href="#aH"/><use transform="matrix(0.05,0,0,0.05,5,0)" xlink:href="#aI"/><use transform="matrix(0.05,0,0,0.05,10.95,0)" xlink:href="#aP"/><use transform="matrix(0.05,0,0,0.05,20.95,0)" xlink:href="#aB"/><use transform="matrix(0.05,0,0,0.05,30.950000000000003,0)" xlink:href="#aG"/><use transform="matrix(0.05,0,0,0.05,39.95,0)" xlink:href="#aV"/><use transform="matrix(0.05,0,0,0.05,44.95,0)" xlink:href="#aE"/><use transform="matrix(0.05,0,0,0.05,54.95,0)" xlink:href="#aI"/><use transform="matrix(0.05,0,0,0.05,60.900000000000006,0)" xlink:href="#aJ"/><use transform="matrix(0.05,0,0,0.05,64.85000000000001,0)" xlink:href="#aI"/><use transform="matrix(0.05,0,0,0.05,70.80000000000001,0)" xlink:href="#aR"/><use transform="matrix(0.05,0,0,0.05,76.75000000000001,0)" xlink:href="#aS"/></g><g id="F"><use transform="matrix(0.05,0,0,0.05,0,0)" xlink:href="#bw"/><use transform="matrix(0.05,0,0,0.05,12.950000000000001,0)" xlink:href="#az"/><use transform="matrix(0.05,0,0,0.05,23.900000000000002,0)" xlink:href="#ax"/><use transform="matrix(0.05,0,0,0.05,34.85,0)" xlink:href="#bA"/><use transform="matrix(0.05,0,0,0.05,40.800000000000004,0)" xlink:href="#aw"/></g><path fill="#333" d="M84 4C-5 8 30-112 23-190h32v120c0 31 7 50 39 49 72-2 45-101 50-169h31l1 190h-30c-1-10 1-25-2-33-11 22-28 36-60 37" id="bC"/><g id="G"><use transform="matrix(0.05,0,0,0.05,0,0)" xlink:href="#aA"/><use transform="matrix(0.05,0,0,0.05,5.95,0)" xlink:href="#aB"/><use transform="matrix(0.05,0,0,0.05,15.949999999999998,0)" xlink:href="#bC"/><use transform="matrix(0.05,0,0,0.05,25.950000000000003,0)" xlink:href="#aD"/><use transform="matrix(0.05,0,0,0.05,40.9,0)" xlink:href="#aE"/><use transform="matrix(0.05,0,0,0.05,50.9,0)" xlink:href="#aI"/><use transform="matrix(0.05,0,0,0.05,56.85,0)" xlink:href="#aC"/><use transform="matrix(0.05,0,0,0.05,66.85,0)" xlink:href="#aQ"/><use transform="matrix(0.05,0,0,0.05,76.85,0)" xlink:href="#aO"/><use transform="matrix(0.05,0,0,0.05,85.85,0)" xlink:href="#aC"/><use transform="matrix(0.05,0,0,0.05,95.85,0)" xlink:href="#aB"/><use transform="matrix(0.05,0,0,0.05,105.84999999999998,0)" xlink:href="#aH"/><use transform="matrix(0.05,0,0,0.05,110.84999999999998,0)" xlink:href="#aP"/><use transform="matrix(0.05,0,0,0.05,120.84999999999998,0)" xlink:href="#aF"/></g><g id="H"><use transform="matrix(0.05,0,0,0.05,0,0)" xlink:href="#aH"/><use transform="matrix(0.05,0,0,0.05,5,0)" xlink:href="#aJ"/><use transform="matrix(0.05,0,0,0.05,8.95,0)" xlink:href="#aT"/><use transform="matrix(0.05,0,0,0.05,18.95,0)" xlink:href="#aC"/><use transform="matrix(0.05,0,0,0.05,28.950000000000003,0)" xlink:href="#aQ"/><use transform="matrix(0.05,0,0,0.05,38.95,0)" xlink:href="#aO"/><use transform="matrix(0.05,0,0,0.05,47.95,0)" xlink:href="#aC"/><use transform="matrix(0.05,0,0,0.05,57.95,0)" xlink:href="#aB"/><use transform="matrix(0.05,0,0,0.05,67.95,0)" xlink:href="#aH"/><use transform="matrix(0.05,0,0,0.05,72.95,0)" xlink:href="#aP"/><use transform="matrix(0.05,0,0,0.05,82.95,0)" xlink:href="#aF"/></g><g id="I"><use transform="matrix(0.05,0,0,0.05,0,0)" xlink:href="#aV"/><use transform="matrix(0.05,0,0,0.05,5,0)" xlink:href="#bB"/><use transform="matrix(0.05,0,0,0.05,8.95,0)" xlink:href="#aC"/><use transform="matrix(0.05,0,0,0.05,18.95,0)" xlink:href="#aP"/><use transform="matrix(0.05,0,0,0.05,28.950000000000003,0)" xlink:href="#aH"/></g><g id="J"><use transform="matrix(0.05,0,0,0.05,0,0)" xlink:href="#aO"/><use transform="matrix(0.05,0,0,0.05,9,0)" xlink:href="#bB"/><use transform="matrix(0.05,0,0,0.05,12.949999999999998,0)" xlink:href="#aJ"/><use transform="matrix(0.05,0,0,0.05,16.9,0)" xlink:href="#aE"/><use transform="matrix(0.05,0,0,0.05,26.899999999999995,0)" xlink:href="#aB"/><use transform="matrix(0.05,0,0,0.05,36.9,0)" xlink:href="#aH"/><use transform="matrix(0.05,0,0,0.05,41.9,0)" xlink:href="#aE"/><use transform="matrix(0.05,0,0,0.05,51.900000000000006,0)" xlink:href="#aF"/></g><path fill="#333" d="M212-179c-10-28-35-45-73-45-59 0-87 40-87 99 0 60 29 101 89 101 43 0 62-24 78-52l27 14C228-24 195 4 139 4 59 4 22-46 18-125c-6-104 99-153 187-111 19 9 31 26 39 46" id="bD"/><g id="K"><use transform="matrix(0.05,0,0,0.05,0,0)" xlink:href="#bD"/><use transform="matrix(0.05,0,0,0.05,12.950000000000001,0)" xlink:href="#bB"/><use transform="matrix(0.05,0,0,0.05,16.900000000000002,0)" xlink:href="#aJ"/><use transform="matrix(0.05,0,0,0.05,20.85,0)" xlink:href="#aE"/><use transform="matrix(0.05,0,0,0.05,30.85,0)" xlink:href="#aB"/><use transform="matrix(0.05,0,0,0.05,40.85,0)" xlink:href="#aH"/><use transform="matrix(0.05,0,0,0.05,45.85,0)" xlink:href="#aE"/></g><use transform="matrix(0.05,0,0,0.05,0,0)" xlink:href="#aA" id="L"/><g id="M"><use transform="matrix(0.05,0,0,0.05,0,0)" xlink:href="#aH"/><use transform="matrix(0.05,0,0,0.05,5,0)" xlink:href="#aI"/><use transform="matrix(0.05,0,0,0.05,10.95,0)" xlink:href="#aP"/><use transform="matrix(0.05,0,0,0.05,20.95,0)" xlink:href="#aG"/><use transform="matrix(0.05,0,0,0.05,29.950000000000003,0)" xlink:href="#aB"/><use transform="matrix(0.05,0,0,0.05,39.95,0)" xlink:href="#aV"/><use transform="matrix(0.05,0,0,0.05,44.95,0)" xlink:href="#aE"/><use transform="matrix(0.05,0,0,0.05,54.95,0)" xlink:href="#aI"/><use transform="matrix(0.05,0,0,0.05,60.900000000000006,0)" xlink:href="#aJ"/><use transform="matrix(0.05,0,0,0.05,64.85000000000001,0)" xlink:href="#aI"/><use transform="matrix(0.05,0,0,0.05,70.80000000000001,0)" xlink:href="#aR"/><use transform="matrix(0.05,0,0,0.05,76.75000000000001,0)" xlink:href="#aS"/></g><path fill="#333" d="M136-208V0H84v-208H4v-40h212v40h-80" id="bE"/><path fill="#333" d="M135-150c-39-12-60 13-60 57V0H25l-1-190h47c2 13-1 29 3 40 6-28 27-53 61-41v41" id="bF"/><path fill="#333" d="M137-138c1-29-70-34-71-4 15 46 118 7 119 86 1 83-164 76-172 9l43-7c4 19 20 25 44 25 33 8 57-30 24-41C81-84 22-81 20-136c-2-80 154-74 161-7" id="bG"/><path fill="#333" d="M190-63c-7 42-38 67-86 67-59 0-84-38-90-98-12-110 154-137 174-36l-49 2c-2-19-15-32-35-32-30 0-35 28-38 64-6 74 65 87 74 30zm-84 77c20 1 33 9 33 27 0 32-36 36-71 33V53c15 1 39 4 39-11 0-13-16-12-31-12L87 0h25" id="bH"/><path fill="#333" d="M110-194c64 0 96 36 96 99 0 64-35 99-97 99-61 0-95-36-95-99 0-62 34-99 96-99zm-1 164c35 0 45-28 45-65 0-40-10-65-43-65-34 0-45 26-45 65 0 36 10 65 43 65zm70-229c-2 27-9 52-40 51-27-1-66-46-73 0H42c0-29 9-51 39-51 28 0 66 44 74 0h24" id="bI"/><g id="N"><use transform="matrix(0.05,0,0,0.05,0,0)" xlink:href="#bE"/><use transform="matrix(0.05,0,0,0.05,9.950000000000001,0)" xlink:href="#bF"/><use transform="matrix(0.05,0,0,0.05,16.950000000000003,0)" xlink:href="#aw"/><use transform="matrix(0.05,0,0,0.05,26.950000000000003,0)" xlink:href="#ax"/><use transform="matrix(0.05,0,0,0.05,37.900000000000006,0)" xlink:href="#bG"/><use transform="matrix(0.05,0,0,0.05,47.900000000000006,0)" xlink:href="#aw"/><use transform="matrix(0.05,0,0,0.05,57.900000000000006,0)" xlink:href="#bH"/><use transform="matrix(0.05,0,0,0.05,67.9,0)" xlink:href="#bI"/><use transform="matrix(0.05,0,0,0.05,78.85000000000001,0)" xlink:href="#bz"/><use transform="matrix(0.05,0,0,0.05,88.85000000000001,0)" xlink:href="#bG"/></g><g id="O"><use transform="matrix(0.05,0,0,0.05,0,0)" xlink:href="#aL"/><use transform="matrix(0.05,0,0,0.05,10,0)" xlink:href="#aP"/><use transform="matrix(0.05,0,0,0.05,20,0)" xlink:href="#aH"/><use transform="matrix(0.05,0,0,0.05,25,0)" xlink:href="#aP"/><use transform="matrix(0.05,0,0,0.05,35,0)" xlink:href="#aF"/></g><g id="P"><use transform="matrix(0.05,0,0,0.05,0,0)" xlink:href="#aU"/><use transform="matrix(0.05,0,0,0.05,9,0)" xlink:href="#aP"/><use transform="matrix(0.05,0,0,0.05,19,0)" xlink:href="#bB"/><use transform="matrix(0.05,0,0,0.05,22.95,0)" xlink:href="#aC"/><use transform="matrix(0.05,0,0,0.05,32.95,0)" xlink:href="#aI"/><use transform="matrix(0.05,0,0,0.05,38.900000000000006,0)" xlink:href="#aF"/></g><g id="Q"><use transform="matrix(0.05,0,0,0.05,0,0)" xlink:href="#aH"/><use transform="matrix(0.05,0,0,0.05,5,0)" xlink:href="#aJ"/><use transform="matrix(0.05,0,0,0.05,8.95,0)" xlink:href="#aT"/><use transform="matrix(0.05,0,0,0.05,18.95,0)" xlink:href="#aC"/><use transform="matrix(0.05,0,0,0.05,28.950000000000003,0)" xlink:href="#aF"/></g><g id="R"><use transform="matrix(0.05,0,0,0.05,0,0)" xlink:href="#aC"/><use transform="matrix(0.05,0,0,0.05,10,0)" xlink:href="#aI"/><use transform="matrix(0.05,0,0,0.05,15.949999999999998,0)" xlink:href="#aJ"/><use transform="matrix(0.05,0,0,0.05,19.9,0)" xlink:href="#aK"/><use transform="matrix(0.05,0,0,0.05,29.899999999999995,0)" xlink:href="#aE"/><use transform="matrix(0.05,0,0,0.05,39.9,0)" xlink:href="#aD"/><use transform="matrix(0.05,0,0,0.05,54.85,0)" xlink:href="#aF"/></g><g id="S"><use transform="matrix(0.05,0,0,0.05,0,0)" xlink:href="#aL"/><use transform="matrix(0.05,0,0,0.05,10,0)" xlink:href="#aE"/><use transform="matrix(0.05,0,0,0.05,20,0)" xlink:href="#aG"/><use transform="matrix(0.05,0,0,0.05,29,0)" xlink:href="#aH"/><use transform="matrix(0.05,0,0,0.05,34,0)" xlink:href="#aJ"/><use transform="matrix(0.05,0,0,0.05,37.95,0)" xlink:href="#aB"/><use transform="matrix(0.05,0,0,0.05,47.95,0)" xlink:href="#aC"/><use transform="matrix(0.05,0,0,0.05,57.95,0)" xlink:href="#aF"/></g><g id="T"><use transform="matrix(0.05,0,0,0.05,0,0)" xlink:href="#aG"/><use transform="matrix(0.05,0,0,0.05,9,0)" xlink:href="#aH"/><use transform="matrix(0.05,0,0,0.05,14,0)" xlink:href="#aI"/><use transform="matrix(0.05,0,0,0.05,19.95,0)" xlink:href="#aJ"/><use transform="matrix(0.05,0,0,0.05,23.9,0)" xlink:href="#aB"/><use transform="matrix(0.05,0,0,0.05,33.9,0)" xlink:href="#aK"/></g><path fill="#333" d="M141-36C126-15 110 5 73 4 37 3 15-17 15-53c-1-64 63-63 125-63 3-35-9-54-41-54-24 1-41 7-42 31l-33-3c5-37 33-52 76-52 45 0 72 20 72 64v82c-1 20 7 32 28 27v20c-31 9-61-2-59-35zM48-53c0 20 12 33 32 33 41-3 63-29 60-74-43 2-92-5-92 41zm117-205c-3 23-9 48-36 47-26-1-65-44-74 0H39c4-23 8-48 36-47s64 44 74 0h16" id="bJ"/><g id="U"><use transform="matrix(0.05,0,0,0.05,0,0)" xlink:href="#aI"/><use transform="matrix(0.05,0,0,0.05,5.95,0)" xlink:href="#aE"/><use transform="matrix(0.05,0,0,0.05,15.949999999999998,0)" xlink:href="#aK"/><use transform="matrix(0.05,0,0,0.05,25.950000000000003,0)" xlink:href="#aJ"/><use transform="matrix(0.05,0,0,0.05,29.899999999999995,0)" xlink:href="#aG"/><use transform="matrix(0.05,0,0,0.05,38.9,0)" xlink:href="#aH"/><use transform="matrix(0.05,0,0,0.05,43.9,0)" xlink:href="#aI"/><use transform="matrix(0.05,0,0,0.05,49.85,0)" xlink:href="#aP"/><use transform="matrix(0.05,0,0,0.05,59.85,0)" xlink:href="#aI"/><use transform="matrix(0.05,0,0,0.05,65.8,0)" xlink:href="#aQ"/><use transform="matrix(0.05,0,0,0.05,75.8,0)" xlink:href="#aH"/><use transform="matrix(0.05,0,0,0.05,80.8,0)" xlink:href="#aI"/><use transform="matrix(0.05,0,0,0.05,86.75,0)" xlink:href="#aP"/><use transform="matrix(0.05,0,0,0.05,96.75,0)" xlink:href="#aB"/><use transform="matrix(0.05,0,0,0.05,106.75,0)" xlink:href="#aG"/><use transform="matrix(0.05,0,0,0.05,115.75,0)" xlink:href="#aP"/><use transform="matrix(0.05,0,0,0.05,125.75,0)" xlink:href="#aM"/><use transform="matrix(0.05,0,0,0.05,134.75,0)" xlink:href="#bJ"/><use transform="matrix(0.05,0,0,0.05,144.75,0)" xlink:href="#aC"/><use transform="matrix(0.05,0,0,0.05,154.75,0)" xlink:href="#aR"/><use transform="matrix(0.05,0,0,0.05,160.7,0)" xlink:href="#aS"/></g><g id="W"><use transform="matrix(0.05,0,0,0.05,0,0)" xlink:href="#bw"/><use transform="matrix(0.05,0,0,0.05,12.950000000000001,0)" xlink:href="#aw"/><use transform="matrix(0.05,0,0,0.05,22.950000000000003,0)" xlink:href="#bF"/><use transform="matrix(0.05,0,0,0.05,29.950000000000003,0)" xlink:href="#bA"/><use transform="matrix(0.05,0,0,0.05,35.900000000000006,0)" xlink:href="#aw"/><use transform="matrix(0.05,0,0,0.05,45.900000000000006,0)" xlink:href="#az"/></g><path fill="#333" d="M88-194c31-1 46 15 58 34l-1-101h50l1 261h-48c-2-10 0-23-3-31C134-8 116 4 84 4 32 4 16-41 15-95c0-56 19-97 73-99zm17 164c33 0 40-30 41-66 1-37-9-64-41-64s-38 30-39 65c0 43 13 65 39 65" id="bK"/><g id="X"><use transform="matrix(0.05,0,0,0.05,0,0)" xlink:href="#ay"/><use transform="matrix(0.05,0,0,0.05,10,0)" xlink:href="#bF"/><use transform="matrix(0.05,0,0,0.05,17,0)" xlink:href="#bz"/><use transform="matrix(0.05,0,0,0.05,27,0)" xlink:href="#bK"/><use transform="matrix(0.05,0,0,0.05,37.95,0)" xlink:href="#by"/><use transform="matrix(0.05,0,0,0.05,42.95,0)" xlink:href="#bA"/><use transform="matrix(0.05,0,0,0.05,48.900000000000006,0)" xlink:href="#az"/></g><g id="Y"><use transform="matrix(0.05,0,0,0.05,0,0)" xlink:href="#aB"/><use transform="matrix(0.05,0,0,0.05,10,0)" xlink:href="#bC"/><use transform="matrix(0.05,0,0,0.05,20,0)" xlink:href="#aD"/><use transform="matrix(0.05,0,0,0.05,34.95,0)" xlink:href="#aE"/><use transform="matrix(0.05,0,0,0.05,44.95,0)" xlink:href="#aI"/><use transform="matrix(0.05,0,0,0.05,50.900000000000006,0)" xlink:href="#aC"/><use transform="matrix(0.05,0,0,0.05,60.900000000000006,0)" xlink:href="#aF"/></g><g id="Z"><use transform="matrix(0.05,0,0,0.05,0,0)" xlink:href="#bB"/><use transform="matrix(0.05,0,0,0.05,3.95,0)" xlink:href="#aJ"/><use transform="matrix(0.05,0,0,0.05,7.9,0)" xlink:href="#aD"/><use transform="matrix(0.05,0,0,0.05,22.85,0)" xlink:href="#aJ"/><use transform="matrix(0.05,0,0,0.05,26.8,0)" xlink:href="#aH"/><use transform="matrix(0.05,0,0,0.05,31.8,0)" xlink:href="#aE"/><use transform="matrix(0.05,0,0,0.05,41.8,0)" xlink:href="#aF"/></g><path fill="#333" d="M141 0L90-78 38 0H4l68-98-65-92h35l48 74 47-74h35l-64 92 68 98h-35" id="bL"/><path fill="#333" d="M24-231v-30h32v30H24zM-9 49c24 4 33-6 33-30v-209h32V24c2 40-23 58-65 49V49" id="bM"/><g id="aa"><use transform="matrix(0.05,0,0,0.05,0,0)" xlink:href="#aH"/><use transform="matrix(0.05,0,0,0.05,5,0)" xlink:href="#aP"/><use transform="matrix(0.05,0,0,0.05,15,0)" xlink:href="#bL"/><use transform="matrix(0.05,0,0,0.05,24,0)" xlink:href="#aP"/><use transform="matrix(0.05,0,0,0.05,34,0)" xlink:href="#aQ"/><use transform="matrix(0.05,0,0,0.05,44,0)" xlink:href="#bM"/><use transform="matrix(0.05,0,0,0.05,47.95,0)" xlink:href="#bC"/><use transform="matrix(0.05,0,0,0.05,57.95,0)" xlink:href="#aI"/><use transform="matrix(0.05,0,0,0.05,63.900000000000006,0)" xlink:href="#aC"/><use transform="matrix(0.05,0,0,0.05,73.9,0)" xlink:href="#aG"/><use transform="matrix(0.05,0,0,0.05,82.9,0)" xlink:href="#aF"/></g><g id="ab"><use transform="matrix(0.05,0,0,0.05,0,0)" xlink:href="#aO"/><use transform="matrix(0.05,0,0,0.05,9,0)" xlink:href="#aC"/><use transform="matrix(0.05,0,0,0.05,19,0)" xlink:href="#aB"/><use transform="matrix(0.05,0,0,0.05,29,0)" xlink:href="#aG"/><use transform="matrix(0.05,0,0,0.05,38,0)" xlink:href="#bC"/><use transform="matrix(0.05,0,0,0.05,48,0)" xlink:href="#bB"/><use transform="matrix(0.05,0,0,0.05,51.95,0)" xlink:href="#aH"/><use transform="matrix(0.05,0,0,0.05,56.95,0)" xlink:href="#aP"/><use transform="matrix(0.05,0,0,0.05,66.95,0)" xlink:href="#aI"/><use transform="matrix(0.05,0,0,0.05,72.9,0)" xlink:href="#aQ"/><use transform="matrix(0.05,0,0,0.05,82.9,0)" xlink:href="#bB"/><use transform="matrix(0.05,0,0,0.05,86.85000000000001,0)" xlink:href="#aJ"/><use transform="matrix(0.05,0,0,0.05,90.80000000000001,0)" xlink:href="#aD"/><use transform="matrix(0.05,0,0,0.05,105.75,0)" xlink:href="#aJ"/><use transform="matrix(0.05,0,0,0.05,109.7,0)" xlink:href="#aH"/><use transform="matrix(0.05,0,0,0.05,114.7,0)" xlink:href="#aE"/><use transform="matrix(0.05,0,0,0.05,124.7,0)" xlink:href="#aR"/><use transform="matrix(0.05,0,0,0.05,130.65,0)" xlink:href="#aS"/></g><path fill="#333" d="M76-208v77h127v40H76V0H24v-248h183v40H76" id="bN"/><path fill="#333" d="M220-157c-53 9-28 100-34 157h-49v-107c1-27-5-49-29-50C55-147 81-57 75 0H25l-1-190h47c2 12-1 28 3 38 10-53 101-56 108 0 13-22 24-43 59-42 82 1 51 116 57 194h-49v-107c-1-25-5-48-29-50" id="bO"/><g id="ac"><use transform="matrix(0.05,0,0,0.05,0,0)" xlink:href="#bN"/><use transform="matrix(0.05,0,0,0.05,10.950000000000001,0)" xlink:href="#by"/><use transform="matrix(0.05,0,0,0.05,15.950000000000001,0)" xlink:href="#ax"/><use transform="matrix(0.05,0,0,0.05,26.900000000000002,0)" xlink:href="#aw"/><use transform="matrix(0.05,0,0,0.05,36.900000000000006,0)" xlink:href="#ax"/><use transform="matrix(0.05,0,0,0.05,47.85000000000001,0)" xlink:href="#ay"/><use transform="matrix(0.05,0,0,0.05,57.85,0)" xlink:href="#by"/><use transform="matrix(0.05,0,0,0.05,62.85,0)" xlink:href="#aw"/><use transform="matrix(0.05,0,0,0.05,72.85000000000001,0)" xlink:href="#bO"/><use transform="matrix(0.05,0,0,0.05,88.85000000000001,0)" xlink:href="#bz"/><use transform="matrix(0.05,0,0,0.05,98.85000000000001,0)" xlink:href="#ax"/><use transform="matrix(0.05,0,0,0.05,109.80000000000001,0)" xlink:href="#bA"/><use transform="matrix(0.05,0,0,0.05,115.75,0)" xlink:href="#az"/></g><g id="ad"><use transform="matrix(0.05,0,0,0.05,0,0)" xlink:href="#aL"/><use transform="matrix(0.05,0,0,0.05,10,0)" xlink:href="#aP"/><use transform="matrix(0.05,0,0,0.05,20,0)" xlink:href="#aH"/><use transform="matrix(0.05,0,0,0.05,25,0)" xlink:href="#aP"/><use transform="matrix(0.05,0,0,0.05,35,0)" xlink:href="#aF"/></g><g id="ae"><use transform="matrix(0.05,0,0,0.05,0,0)" xlink:href="#aT"/><use transform="matrix(0.05,0,0,0.05,10,0)" xlink:href="#aP"/><use transform="matrix(0.05,0,0,0.05,20,0)" xlink:href="#aI"/><use transform="matrix(0.05,0,0,0.05,25.950000000000003,0)" xlink:href="#aO"/><use transform="matrix(0.05,0,0,0.05,34.95,0)" xlink:href="#aE"/><use transform="matrix(0.05,0,0,0.05,44.95,0)" xlink:href="#bB"/><use transform="matrix(0.05,0,0,0.05,48.900000000000006,0)" xlink:href="#aP"/><use transform="matrix(0.05,0,0,0.05,58.900000000000006,0)" xlink:href="#aG"/><use transform="matrix(0.05,0,0,0.05,67.9,0)" xlink:href="#aF"/></g><g id="af"><use transform="matrix(0.05,0,0,0.05,0,0)" xlink:href="#aJ"/><use transform="matrix(0.05,0,0,0.05,3.95,0)" xlink:href="#aB"/><use transform="matrix(0.05,0,0,0.05,13.949999999999998,0)" xlink:href="#aH"/></g><g id="ag"><use transform="matrix(0.05,0,0,0.05,0,0)" xlink:href="#aO"/><use transform="matrix(0.05,0,0,0.05,9,0)" xlink:href="#aP"/><use transform="matrix(0.05,0,0,0.05,19,0)" xlink:href="#bB"/><use transform="matrix(0.05,0,0,0.05,22.95,0)" xlink:href="#aO"/><use transform="matrix(0.05,0,0,0.05,31.950000000000003,0)" xlink:href="#bC"/><use transform="matrix(0.05,0,0,0.05,41.95,0)" xlink:href="#bB"/><use transform="matrix(0.05,0,0,0.05,45.900000000000006,0)" xlink:href="#aP"/><use transform="matrix(0.05,0,0,0.05,55.900000000000006,0)" xlink:href="#aI"/><use transform="matrix(0.05,0,0,0.05,61.85,0)" xlink:href="#aQ"/><use transform="matrix(0.05,0,0,0.05,71.85000000000001,0)" xlink:href="#bM"/><use transform="matrix(0.05,0,0,0.05,75.80000000000001,0)" xlink:href="#bC"/><use transform="matrix(0.05,0,0,0.05,85.80000000000001,0)" xlink:href="#aI"/><use transform="matrix(0.05,0,0,0.05,91.75000000000001,0)" xlink:href="#aC"/><use transform="matrix(0.05,0,0,0.05,101.75000000000001,0)" xlink:href="#aG"/><use transform="matrix(0.05,0,0,0.05,110.75,0)" xlink:href="#aR"/><use transform="matrix(0.05,0,0,0.05,116.7,0)" xlink:href="#aS"/></g><g id="ah"><use transform="matrix(0.05,0,0,0.05,0,0)" xlink:href="#aP"/><use transform="matrix(0.05,0,0,0.05,10,0)" xlink:href="#aT"/><use transform="matrix(0.05,0,0,0.05,20,0)" xlink:href="#aI"/><use transform="matrix(0.05,0,0,0.05,25.950000000000003,0)" xlink:href="#aC"/><use transform="matrix(0.05,0,0,0.05,35.95,0)" xlink:href="#aU"/><use transform="matrix(0.05,0,0,0.05,44.95,0)" xlink:href="#aP"/><use transform="matrix(0.05,0,0,0.05,54.95,0)" xlink:href="#aI"/><use transform="matrix(0.05,0,0,0.05,60.900000000000006,0)" xlink:href="#aQ"/><use transform="matrix(0.05,0,0,0.05,70.9,0)" xlink:href="#aE"/><use transform="matrix(0.05,0,0,0.05,80.9,0)" xlink:href="#aD"/><use transform="matrix(0.05,0,0,0.05,95.85000000000001,0)" xlink:href="#aT"/><use transform="matrix(0.05,0,0,0.05,105.85000000000001,0)" xlink:href="#aI"/><use transform="matrix(0.05,0,0,0.05,111.80000000000001,0)" xlink:href="#aE"/><use transform="matrix(0.05,0,0,0.05,121.80000000000001,0)" xlink:href="#aG"/><use transform="matrix(0.05,0,0,0.05,130.8,0)" xlink:href="#aH"/><use transform="matrix(0.05,0,0,0.05,135.8,0)" xlink:href="#aJ"/><use transform="matrix(0.05,0,0,0.05,139.75,0)" xlink:href="#aD"/><use transform="matrix(0.05,0,0,0.05,154.7,0)" xlink:href="#aC"/><use transform="matrix(0.05,0,0,0.05,164.7,0)" xlink:href="#aR"/><use transform="matrix(0.05,0,0,0.05,170.64999999999998,0)" xlink:href="#aS"/></g><g id="ai"><use transform="matrix(0.05,0,0,0.05,0,0)" xlink:href="#aI"/><use transform="matrix(0.05,0,0,0.05,5.95,0)" xlink:href="#aE"/><use transform="matrix(0.05,0,0,0.05,15.949999999999998,0)" xlink:href="#bM"/><use transform="matrix(0.05,0,0,0.05,19.9,0)" xlink:href="#aE"/><use transform="matrix(0.05,0,0,0.05,29.899999999999995,0)" xlink:href="#aJ"/><use transform="matrix(0.05,0,0,0.05,33.85,0)" xlink:href="#aH"/><use transform="matrix(0.05,0,0,0.05,38.85,0)" xlink:href="#aP"/><use transform="matrix(0.05,0,0,0.05,48.85,0)" xlink:href="#aI"/><use transform="matrix(0.05,0,0,0.05,54.800000000000004,0)" xlink:href="#aQ"/><use transform="matrix(0.05,0,0,0.05,64.80000000000001,0)" xlink:href="#aE"/><use transform="matrix(0.05,0,0,0.05,74.80000000000001,0)" xlink:href="#aD"/><use transform="matrix(0.05,0,0,0.05,89.75000000000001,0)" xlink:href="#aT"/><use transform="matrix(0.05,0,0,0.05,99.75000000000001,0)" xlink:href="#aI"/><use transform="matrix(0.05,0,0,0.05,105.7,0)" xlink:href="#aE"/><use transform="matrix(0.05,0,0,0.05,115.7,0)" xlink:href="#aG"/><use transform="matrix(0.05,0,0,0.05,124.7,0)" xlink:href="#aH"/><use transform="matrix(0.05,0,0,0.05,129.70000000000002,0)" xlink:href="#aJ"/><use transform="matrix(0.05,0,0,0.05,133.65,0)" xlink:href="#aD"/><use transform="matrix(0.05,0,0,0.05,148.6,0)" xlink:href="#aC"/><use transform="matrix(0.05,0,0,0.05,158.6,0)" xlink:href="#aR"/><use transform="matrix(0.05,0,0,0.05,164.54999999999998,0)" xlink:href="#aS"/></g><path fill="#333" d="M199 0l-22-63H83L61 0H9l90-248h61L250 0h-51zm-33-102l-36-108c-10 38-24 72-36 108h72" id="bP"/><path fill="#333" d="M24-248c93 1 206-16 204 79-1 75-69 88-152 82V0H24v-248zm52 121c47 0 100 7 100-41 0-47-54-39-100-39v80" id="bQ"/><g id="aj"><use transform="matrix(0.05,0,0,0.05,0,0)" xlink:href="#bP"/><use transform="matrix(0.05,0,0,0.05,12.950000000000001,0)" xlink:href="#bQ"/><use transform="matrix(0.05,0,0,0.05,24.950000000000003,0)" xlink:href="#bQ"/></g><g id="ak"><use transform="matrix(0.05,0,0,0.05,0,0)" xlink:href="#av"/><use transform="matrix(0.05,0,0,0.05,12.950000000000001,0)" xlink:href="#aw"/><use transform="matrix(0.05,0,0,0.05,22.950000000000003,0)" xlink:href="#ax"/><use transform="matrix(0.05,0,0,0.05,33.900000000000006,0)" xlink:href="#ay"/><use transform="matrix(0.05,0,0,0.05,43.900000000000006,0)" xlink:href="#az"/></g><g id="al"><use transform="matrix(0.05,0,0,0.05,0,0)" xlink:href="#aB"/><use transform="matrix(0.05,0,0,0.05,10,0)" xlink:href="#aC"/><use transform="matrix(0.05,0,0,0.05,20,0)" xlink:href="#aD"/><use transform="matrix(0.05,0,0,0.05,34.95,0)" xlink:href="#aE"/><use transform="matrix(0.05,0,0,0.05,44.95,0)" xlink:href="#aQ"/><use transform="matrix(0.05,0,0,0.05,54.95,0)" xlink:href="#bC"/><use transform="matrix(0.05,0,0,0.05,64.95,0)" xlink:href="#aG"/><use transform="matrix(0.05,0,0,0.05,73.95,0)" xlink:href="#bC"/><use transform="matrix(0.05,0,0,0.05,83.95,0)" xlink:href="#aP"/><use transform="matrix(0.05,0,0,0.05,93.95,0)" xlink:href="#aI"/><use transform="matrix(0.05,0,0,0.05,99.9,0)" xlink:href="#aJ"/><use transform="matrix(0.05,0,0,0.05,103.85000000000001,0)" xlink:href="#aC"/><use transform="matrix(0.05,0,0,0.05,113.85000000000001,0)" xlink:href="#aF"/></g><path fill="#333" d="M106-169C34-169 62-67 57 0H25v-261h32l-1 103c12-21 28-36 61-36 89 0 53 116 60 194h-32v-121c2-32-8-49-39-48" id="bR"/><g id="am"><use transform="matrix(0.05,0,0,0.05,0,0)" xlink:href="#aG"/><use transform="matrix(0.05,0,0,0.05,9,0)" xlink:href="#aE"/><use transform="matrix(0.05,0,0,0.05,19,0)" xlink:href="#aB"/><use transform="matrix(0.05,0,0,0.05,29,0)" xlink:href="#bR"/><use transform="matrix(0.05,0,0,0.05,39,0)" xlink:href="#aP"/><use transform="matrix(0.05,0,0,0.05,49,0)" xlink:href="#aF"/></g><g id="an"><use transform="matrix(0.05,0,0,0.05,0,0)" xlink:href="#bD"/><use transform="matrix(0.05,0,0,0.05,12.950000000000001,0)" xlink:href="#bB"/><use transform="matrix(0.05,0,0,0.05,16.900000000000002,0)" xlink:href="#aJ"/><use transform="matrix(0.05,0,0,0.05,20.85,0)" xlink:href="#aE"/><use transform="matrix(0.05,0,0,0.05,30.85,0)" xlink:href="#aB"/><use transform="matrix(0.05,0,0,0.05,40.85,0)" xlink:href="#aH"/><use transform="matrix(0.05,0,0,0.05,45.85,0)" xlink:href="#aE"/></g><path fill="#333" d="M9 0v-24l116-142H16v-24h144v24L44-24h123V0H9" id="bS"/><g id="ao"><use transform="matrix(0.05,0,0,0.05,0,0)" xlink:href="#aV"/><use transform="matrix(0.05,0,0,0.05,5,0)" xlink:href="#aP"/><use transform="matrix(0.05,0,0,0.05,15,0)" xlink:href="#bS"/><use transform="matrix(0.05,0,0,0.05,24,0)" xlink:href="#aE"/><use transform="matrix(0.05,0,0,0.05,34,0)" xlink:href="#aI"/><use transform="matrix(0.05,0,0,0.05,39.95,0)" xlink:href="#aQ"/><use transform="matrix(0.05,0,0,0.05,49.95,0)" xlink:href="#bB"/><use transform="matrix(0.05,0,0,0.05,53.900000000000006,0)" xlink:href="#aC"/><use transform="matrix(0.05,0,0,0.05,63.900000000000006,0)" xlink:href="#aK"/><use transform="matrix(0.05,0,0,0.05,73.9,0)" xlink:href="#aJ"/><use transform="matrix(0.05,0,0,0.05,77.85000000000001,0)" xlink:href="#aB"/><use transform="matrix(0.05,0,0,0.05,87.85000000000001,0)" xlink:href="#aR"/><use transform="matrix(0.05,0,0,0.05,93.80000000000001,0)" xlink:href="#aS"/><use transform="matrix(0.05,0,0,0.05,99.75000000000001,0)" xlink:href="#aF"/></g><path fill="#333" d="M115-194c53 0 69 39 70 98 0 66-23 100-70 100C84 3 66-7 56-30L54 0H23l1-261h32v101c10-23 28-34 59-34zm-8 174c40 0 45-34 45-75 0-40-5-75-45-74-42 0-51 32-51 76 0 43 10 73 51 73" id="bT"/><g id="ap"><use transform="matrix(0.05,0,0,0.05,0,0)" xlink:href="#aC"/><use transform="matrix(0.05,0,0,0.05,10,0)" xlink:href="#bT"/><use transform="matrix(0.05,0,0,0.05,20,0)" xlink:href="#aH"/><use transform="matrix(0.05,0,0,0.05,25,0)" xlink:href="#aE"/><use transform="matrix(0.05,0,0,0.05,35,0)" xlink:href="#aI"/><use transform="matrix(0.05,0,0,0.05,40.95,0)" xlink:href="#aQ"/><use transform="matrix(0.05,0,0,0.05,50.95,0)" xlink:href="#aG"/><use transform="matrix(0.05,0,0,0.05,59.95,0)" xlink:href="#aP"/><use transform="matrix(0.05,0,0,0.05,69.95,0)" xlink:href="#bB"/><use transform="matrix(0.05,0,0,0.05,73.9,0)" xlink:href="#aL"/><use transform="matrix(0.05,0,0,0.05,83.9,0)" xlink:href="#aC"/><use transform="matrix(0.05,0,0,0.05,93.9,0)" xlink:href="#aR"/><use transform="matrix(0.05,0,0,0.05,99.85000000000001,0)" xlink:href="#aS"/></g><g id="aq"><use transform="matrix(0.05,0,0,0.05,0,0)" xlink:href="#aT"/><use transform="matrix(0.05,0,0,0.05,10,0)" xlink:href="#aP"/><use transform="matrix(0.05,0,0,0.05,20,0)" xlink:href="#aK"/><use transform="matrix(0.05,0,0,0.05,30,0)" xlink:href="#aP"/><use transform="matrix(0.05,0,0,0.05,40,0)" xlink:href="#aI"/><use transform="matrix(0.05,0,0,0.05,45.95,0)" xlink:href="#aQ"/><use transform="matrix(0.05,0,0,0.05,55.95,0)" xlink:href="#aO"/><use transform="matrix(0.05,0,0,0.05,64.95,0)" xlink:href="#aC"/><use transform="matrix(0.05,0,0,0.05,74.95,0)" xlink:href="#aB"/><use transform="matrix(0.05,0,0,0.05,84.95,0)" xlink:href="#aH"/><use transform="matrix(0.05,0,0,0.05,89.95,0)" xlink:href="#aP"/><use transform="matrix(0.05,0,0,0.05,99.95,0)" xlink:href="#aR"/><use transform="matrix(0.05,0,0,0.05,105.9,0)" xlink:href="#aS"/></g><g id="ar"><use transform="matrix(0.05,0,0,0.05,0,0)" xlink:href="#aH"/><use transform="matrix(0.05,0,0,0.05,5,0)" xlink:href="#aI"/><use transform="matrix(0.05,0,0,0.05,10.95,0)" xlink:href="#aP"/><use transform="matrix(0.05,0,0,0.05,20.95,0)" xlink:href="#aB"/><use transform="matrix(0.05,0,0,0.05,30.950000000000003,0)" xlink:href="#aG"/><use transform="matrix(0.05,0,0,0.05,39.95,0)" xlink:href="#aV"/><use transform="matrix(0.05,0,0,0.05,44.95,0)" xlink:href="#aE"/><use transform="matrix(0.05,0,0,0.05,54.95,0)" xlink:href="#aI"/><use transform="matrix(0.05,0,0,0.05,60.900000000000006,0)" xlink:href="#aJ"/><use transform="matrix(0.05,0,0,0.05,64.85000000000001,0)" xlink:href="#aI"/><use transform="matrix(0.05,0,0,0.05,70.80000000000001,0)" xlink:href="#aR"/><use transform="matrix(0.05,0,0,0.05,76.75000000000001,0)" xlink:href="#aS"/></g><g id="as"><use transform="matrix(0.05,0,0,0.05,0,0)" xlink:href="#aG"/><use transform="matrix(0.05,0,0,0.05,9,0)" xlink:href="#aP"/><use transform="matrix(0.05,0,0,0.05,19,0)" xlink:href="#aJ"/><use transform="matrix(0.05,0,0,0.05,22.95,0)" xlink:href="#aI"/><use transform="matrix(0.05,0,0,0.05,28.899999999999995,0)" xlink:href="#aR"/><use transform="matrix(0.05,0,0,0.05,34.85,0)" xlink:href="#aS"/></g><path d="M27 0v-27h64v-190l-56 39v-29l58-41h29v221h61V0H27" id="bU"/><use transform="matrix(0.05,0,0,0.05,0,0)" xlink:href="#bU" id="at"/><path d="M101-251c68 0 85 55 85 127S166 4 100 4C33 4 14-52 14-124c0-73 17-127 87-127zm-1 229c47 0 54-49 54-102s-4-102-53-102c-51 0-55 48-55 102 0 53 5 102 54 102" id="bV"/><use transform="matrix(0.05,0,0,0.05,0,0)" xlink:href="#bV" id="au"/></defs></g></svg>